<?xml version="1.0" encoding="UTF-8"?>
<svg xmlns="http://www.w3.org/2000/svg" width="100%">
   <desc>SVG created from A Big Ball of Text with Special Whatsits Inside</desc>
   <g transform="translate(20 500)">
      <circle cx="200" cy="100" r="50" fill="red" stroke="black"/>
      <text x="193" y="100" fill="white" stroke="black" font-size="25">5</text>
      <circle cx="210" cy="0" fill="orange" stroke="black" r="30"/>
      <text x="198.5" y="0" fill="white" stroke="black" font-size="25">3</text>
      <circle cx="200" cy="-120" r="40" fill="yellow" stroke="black"/>
      <text x="198" y="-120" fill="white" stroke="black" font-size="25">4</text>
      <circle cx="200" cy="-100" r="0" fill="green" stroke="black"/>
      <circle cx="200" cy="-200" r="0" fill="blue" stroke="black"/>
      <circle cx="200" cy="-300" r="0" fill="purple" stroke="black"/>
      <circle cx="200" cy="-400" r="0" fill="pink" stroke="black"/>
      <circle cx="200" cy="-450" r="0" fill="brown" stroke="black"/>
      <circle cx="400" cy="100" r="50" fill="red" stroke="black"/>
      <text x="393" y="100" fill="white" stroke="black" font-size="25">5</text>
      <circle cx="410" cy="0" fill="orange" stroke="black" r="0"/>
      <circle cx="400" cy="-120" r="0" fill="yellow" stroke="black"/>
      <circle cx="400" cy="-100" r="10" fill="green" stroke="black"/>
      <text x="399.5"
            y="-100"
            fill="white"
            stroke="black"
            font-size="25">1</text>
      <circle cx="400" cy="-200" r="10" fill="blue" stroke="black"/>
      <text x="392.5"
            y="-200"
            fill="white"
            stroke="black"
            font-size="25">1</text>
      <circle cx="400" cy="-300" r="0" fill="purple" stroke="black"/>
      <circle cx="400" cy="-400" r="0" fill="pink" stroke="black"/>
      <circle cx="400" cy="-450" r="0" fill="brown" stroke="black"/>
      <circle cx="600" cy="100" r="40" fill="red" stroke="black"/>
      <text x="593" y="100" fill="white" stroke="black" font-size="25">4</text>
      <circle cx="610" cy="0" fill="orange" stroke="black" r="0"/>
      <circle cx="600" cy="-120" r="0" fill="yellow" stroke="black"/>
      <circle cx="600" cy="-100" r="0" fill="green" stroke="black"/>
      <circle cx="600" cy="-200" r="0" fill="blue" stroke="black"/>
      <circle cx="600" cy="-300" r="10" fill="purple" stroke="black"/>
      <text x="592.5"
            y="-300"
            fill="white"
            stroke="black"
            font-size="25">1</text>
      <circle cx="600" cy="-400" r="10" fill="pink" stroke="black"/>
      <text x="592.5"
            y="-400"
            fill="white"
            stroke="black"
            font-size="25">1</text>
      <circle cx="600" cy="-450" r="10" fill="brown" stroke="black"/>
      <text x="592.5"
            y="-450"
            fill="white"
            stroke="black"
            font-size="25">1</text>
      <line x1="0"
            y1="-480"
            x2="0"
            y2="200"
            style="stroke:black;stroke-width:3"/>
      <line x1="0"
            y1="200"
            x2="670"
            y2="200"
            style="stroke:black;stroke-width:3"/>
   </g>
</svg>
