<?xml version="1.0" encoding="UTF-8"?>
<!DOCTYPE svg PUBLIC "-//W3C//DTD SVG 1.1//EN" "http://www.w3.org/Graphics/SVG/1.1/DTD/svg11.dtd">
<svg xmlns="http://www.w3.org/2000/svg" width="100%" height="100%">
    <desc></desc>
    <g alignment-baseline="baseline">
        <rect x="500" y="50" width="500" height="600" fill="pink" stroke="black" stroke-width="1" />
        <circle cx="600" cy="550" r="35" stroke="red" fill="blue" stroke-width="7"/>
        <circle cx="600" cy="450" r="35" stroke="blue" fill="red" stroke-width="7"/>
        <circle cx="600" cy="350" r="35" stroke="red" fill="blue" stroke-width="7"/>
        <circle cx="700" cy="350" r="35" stroke="blue" fill="red" stroke-width="7"/>
        <circle cx="800" cy="350" r="35" stroke="red" fill="blue" stroke-width="7"/>
        <circle cx="600" cy="250" r="35" stroke="blue" fill="red" stroke-width="7"/>
        <circle cx="600" cy="150" r="35" stroke="red" fill="blue" stroke-width="7"/>
        <circle cx="700" cy="150" r="35" stroke="blue" fill="red" stroke-width="7"/>
        <circle cx="800" cy="150" r="35" stroke="red" fill="blue" stroke-width="7"/>
        <circle cx="900" cy="150" r="35" stroke="blue" fill="red" stroke-width="7"/>
        <circle cx="700" cy="550" r="35" stroke="blue" fill="red" stroke-width="7"/>
        <circle cx="800" cy="550" r="35" stroke="red" fill="blue" stroke-width="7"/>
        <circle cx="900" cy="550" r="35" stroke="blue" fill="red" stroke-width="7"/>
        <line x1="500" y1="50" x2="1000" y2="50" stroke="green" stroke-width="9"/>
        <line x1="500" y1="650" x2="1000" y2="650" stroke="green" stroke-width="9"/>
        <line x1="500" y1="50" x2="500" y2="650" stroke="green" stroke-width="9"/>
        <line x1="1000" y1="50" x2="1000" y2="650" stroke="green" stroke-width="9"/>
    </g>
</svg>