<?xml version="1.0" encoding="UTF-8"?>
<!DOCTYPE svg PUBLIC "-//W3C//DTD SVG 1.1//EN" "http://www.w3.org/Graphics/SVG/1.1/DTD/svg11.dtd">
<svg xmlns="http://www.w3.org/2000/svg" width="100%" height="100%" viewBox="0 0 800 600">
    <desc>
        This SVG shows three islands (Tahiti, Raiatea, Tongatapu) as pulsing stars in a night sky. 
        Star size shows island size.
    </desc>
    
    <desc>Background </desc>
        <rect width="100%" height="100%" fill="darkblue" />
    
    <desc>Moon</desc>
    <circle cx="700" cy="100" r="50" fill="lightyellow" />
    
    <desc>Title</desc>
    <text x="400" y="50" font-family="Arial" font-size="24" fill="white" text-anchor="middle">
        Island Area Comparison: Animated Stars
    </text>
    
    <desc>Star for Tahiti</desc>
    <g transform="translate(300, 250)">
        <polygon points="0,-60 18,-20 58,-20 23,8 36,48 0,25 -36,48 -23,8 -58,-20 -18,-20"
            fill="cyan" opacity="0.8">
            <desc>Pulsating animation</desc>
            <animateTransform attributeName="transform" type="scale" begin="0s" dur="3s" repeatCount="indefinite"
                from="1" to="1.5" />
        </polygon>
        <text x="0" y="80" font-family="Arial" font-size="14" fill="white" text-anchor="middle">
            Tahiti (404 sq mi)
        </text>
    </g>
    
    <desc>Star for Raiatea</desc>
    <g transform="translate(400, 400)">
        <polygon points="0,-30 9,-10 29,-10 12,4 18,24 0,12 -18,24 -12,4 -29,-10 -9,-10"
            fill="lime" opacity="0.8">
            <desc>Pulsating animation</desc>
            <animateTransform attributeName="transform" type="scale" begin="0s" dur="3s" repeatCount="indefinite"
                from="1" to="1.5" />
        </polygon>
        <text x="0" y="50" font-family="Arial" font-size="14" fill="white" text-anchor="middle">
            Raiatea (65 sq mi)
        </text>
    </g>
    
    <desc>Star for Tongatapu</desc>
    <g transform="translate(500, 250)">
        <polygon points="0,-40 12,-13 38,-13 15,6 24,32 0,17 -24,32 -15,6 -38,-13 -12,-13"
            fill="orange" opacity="0.8">
            <desc>Pulsating animation</desc>
            <animateTransform attributeName="transform" type="scale" begin="0s" dur="3s" repeatCount="indefinite"
                from="1" to="1.5" />
        </polygon>
        <text x="0" y="60" font-family="Arial" font-size="14" fill="white" text-anchor="middle">
            Tongatapu (100 sq mi)
        </text>
    </g>
</svg>