<?xml version="1.0" encoding="UTF-8" standalone="no"?>
<!DOCTYPE svg PUBLIC "-//W3C//DTD SVG 1.1//EN"
 "http://www.w3.org/Graphics/SVG/1.1/DTD/svg11.dtd">
<!-- Generated by graphviz version 2.40.1 (20161225.0304)
 -->
<!-- Title: pipeline Pages: 1 -->
<svg width="542pt" height="1531pt"
 viewBox="0.00 0.00 542.00 1530.99" xmlns="http://www.w3.org/2000/svg" xmlns:xlink="http://www.w3.org/1999/xlink">
<g id="graph0" class="graph" transform="scale(1 1) rotate(0) translate(4 1526.9877)">
<title>pipeline</title>
<polygon fill="#ffffff" stroke="transparent" points="-4,4 -4,-1526.9877 538,-1526.9877 538,4 -4,4"/>
<g id="cluster_d196e3" class="cluster">
<title>cluster_d196e3</title>
</g>
<g id="cluster_d196e6" class="cluster">
<title>cluster_d196e6</title>
</g>
<g id="cluster_d196e2" class="cluster">
<title>cluster_d196e2</title>
<path fill="none" stroke="#56b4e9" stroke-width="2" d="M20,-8C20,-8 396,-8 396,-8 402,-8 408,-14 408,-20 408,-20 408,-1417.2939 408,-1417.2939 408,-1423.2939 402,-1429.2939 396,-1429.2939 396,-1429.2939 20,-1429.2939 20,-1429.2939 14,-1429.2939 8,-1423.2939 8,-1417.2939 8,-1417.2939 8,-20 8,-20 8,-14 14,-8 20,-8"/>
<text text-anchor="middle" x="208" y="-1414.0939" font-family="sans-serif" font-size="14.00" fill="#000000">p:declare&#45;step “onepiece&#45;to&#45;XML”</text>
</g>
<g id="cluster_d196e24" class="cluster">
<title>cluster_d196e24</title>
</g>
<g id="cluster_d196e16" class="cluster">
<title>cluster_d196e16</title>
</g>
<g id="cluster_d196e9" class="cluster">
<title>cluster_d196e9</title>
</g>
<g id="cluster_d196e34" class="cluster">
<title>cluster_d196e34</title>
</g>
<g id="cluster_d196e45" class="cluster">
<title>cluster_d196e45</title>
</g>
<g id="cluster_d196e57" class="cluster">
<title>cluster_d196e57</title>
</g>
<g id="cluster_d196e67" class="cluster">
<title>cluster_d196e67</title>
</g>
<g id="cluster_d196e81" class="cluster">
<title>cluster_d196e81</title>
</g>
<g id="cluster_d196e91" class="cluster">
<title>cluster_d196e91</title>
</g>
<g id="cluster_d196e103" class="cluster">
<title>cluster_d196e103</title>
</g>
<g id="cluster_d196e117" class="cluster">
<title>cluster_d196e117</title>
</g>
<g id="cluster_d196e127" class="cluster">
<title>cluster_d196e127</title>
</g>
<g id="cluster_d196e139" class="cluster">
<title>cluster_d196e139</title>
</g>
<g id="cluster_d196e154" class="cluster">
<title>cluster_d196e154</title>
</g>
<!-- cluster_d196e3 -->
<g id="node1" class="node">
<title>cluster_d196e3</title>
<polygon fill="none" stroke="#000000" points="210.3641,-1473.8552 262,-1456.446 313.6359,-1473.8552 313.5877,-1502.0238 210.4123,-1502.0238 210.3641,-1473.8552"/>
<polygon fill="none" stroke="#000000" points="241,-1470.6408 241,-1491.6408 284,-1491.6408 284,-1470.6408 241,-1470.6408"/>
<text text-anchor="start" x="244" y="-1477.4408" font-family="Times,serif" font-size="14.00" fill="#000000">source</text>
</g>
<!-- cluster_d196e9 -->
<g id="node3" class="node">
<title>cluster_d196e9</title>
<polygon fill="none" stroke="#000000" points="241,-1365.2939 241,-1386.2939 284,-1386.2939 284,-1365.2939 241,-1365.2939"/>
<text text-anchor="start" x="244" y="-1372.0939" font-family="Times,serif" font-size="14.00" fill="#000000">source</text>
<polygon fill="none" stroke="#000000" points="241,-1344.2939 241,-1365.2939 284,-1365.2939 284,-1344.2939 241,-1344.2939"/>
<text text-anchor="start" x="244" y="-1351.0939" font-family="Times,serif" font-size="14.00" fill="#000000">source</text>
</g>
<!-- cluster_d196e3&#45;&gt;cluster_d196e9 -->
<g id="edge18" class="edge">
<title>cluster_d196e3:input_4&#45;&gt;cluster_d196e9:_4</title>
<path fill="none" stroke="#000000" d="M263,-1470.449C263,-1455.0398 263,-1424.6214 263,-1396.513"/>
<polygon fill="#000000" stroke="#000000" points="266.5001,-1396.2938 263,-1386.2939 259.5001,-1396.2939 266.5001,-1396.2938"/>
</g>
<!-- cluster_d196e6 -->
<g id="node2" class="node">
<title>cluster_d196e6</title>
<polygon fill="none" stroke="#000000" points="518.3963,-1139.7325 471,-1157.1417 423.6037,-1139.7325 423.6479,-1111.5639 518.3521,-1111.5639 518.3963,-1139.7325"/>
<polygon fill="none" stroke="#000000" points="452,-1120.9469 452,-1141.9469 490,-1141.9469 490,-1120.9469 452,-1120.9469"/>
<text text-anchor="start" x="455" y="-1127.7469" font-family="Times,serif" font-size="14.00" fill="#000000">result</text>
</g>
<!-- cluster_d196e24 -->
<g id="node5" class="node">
<title>cluster_d196e24</title>
<polygon fill="none" stroke="#000000" points="245,-1239.7939 245,-1260.7939 305,-1260.7939 305,-1239.7939 245,-1239.7939"/>
<text text-anchor="start" x="256.5" y="-1246.5939" font-family="Times,serif" font-size="14.00" fill="#000000">source</text>
<polygon fill="#edc571" stroke="transparent" points="245,-1218.7939 245,-1239.7939 305,-1239.7939 305,-1218.7939 245,-1218.7939"/>
<polygon fill="none" stroke="#000000" points="245,-1218.7939 245,-1239.7939 305,-1239.7939 305,-1218.7939 245,-1218.7939"/>
<text text-anchor="start" x="248" y="-1225.5939" font-family="Times,serif" font-size="14.00" fill="#000000">p:identity</text>
<polygon fill="none" stroke="#000000" points="245,-1197.7939 245,-1218.7939 305,-1218.7939 305,-1197.7939 245,-1197.7939"/>
<text text-anchor="start" x="259" y="-1204.5939" font-family="Times,serif" font-size="14.00" fill="#000000">result</text>
</g>
<!-- cluster_d196e9&#45;&gt;cluster_d196e24 -->
<g id="edge2" class="edge">
<title>cluster_d196e9:_5&#45;&gt;cluster_d196e24:_11</title>
<path fill="none" stroke="#000000" d="M263,-1344.2939C263,-1310.4628 272.7707,-1300.2257 274.679,-1271.0029"/>
<polygon fill="#000000" stroke="#000000" points="278.1839,-1270.8989 275,-1260.7939 271.1874,-1270.6789 278.1839,-1270.8989"/>
</g>
<!-- cluster_d196e16 -->
<g id="node4" class="node">
<title>cluster_d196e16</title>
<polygon fill="none" stroke="#000000" points="325,-1365.2939 325,-1386.2939 384,-1386.2939 384,-1365.2939 325,-1365.2939"/>
<text text-anchor="start" x="328" y="-1372.0939" font-family="Times,serif" font-size="14.00" fill="#000000">cx:empty</text>
<polygon fill="none" stroke="#000000" points="325,-1344.2939 325,-1365.2939 384,-1365.2939 384,-1344.2939 325,-1344.2939"/>
<text text-anchor="start" x="338.5" y="-1351.0939" font-family="Times,serif" font-size="14.00" fill="#000000">result</text>
</g>
<!-- cluster_d196e154 -->
<g id="node21" class="node">
<title>cluster_d196e154</title>
<polygon fill="none" stroke="#000000" points="345,-1229.7939 345,-1250.7939 383,-1250.7939 383,-1229.7939 345,-1229.7939"/>
<text text-anchor="start" x="348" y="-1236.5939" font-family="Times,serif" font-size="14.00" fill="#000000">result</text>
<polygon fill="none" stroke="#000000" points="345,-1208.7939 345,-1229.7939 383,-1229.7939 383,-1208.7939 345,-1208.7939"/>
<text text-anchor="start" x="348" y="-1215.5939" font-family="Times,serif" font-size="14.00" fill="#000000">result</text>
</g>
<!-- cluster_d196e16&#45;&gt;cluster_d196e154 -->
<g id="edge1" class="edge">
<title>cluster_d196e16:_9&#45;&gt;cluster_d196e154:_6</title>
<path fill="none" stroke="#000000" d="M355,-1344.2939C355,-1306.1339 362.5196,-1294.4955 363.812,-1260.8939"/>
<polygon fill="#000000" stroke="#000000" points="367.3132,-1260.8573 364,-1250.7939 360.3144,-1260.727 367.3132,-1260.8573"/>
</g>
<!-- cluster_d196e45 -->
<g id="node7" class="node">
<title>cluster_d196e45</title>
<polygon fill="none" stroke="#000000" points="196,-1044.1 196,-1065.1 253,-1065.1 253,-1044.1 196,-1044.1"/>
<text text-anchor="start" x="199" y="-1050.9" font-family="Times,serif" font-size="14.00" fill="#000000">grammar</text>
<polygon fill="none" stroke="#000000" points="253,-1044.1 253,-1065.1 296,-1065.1 296,-1044.1 253,-1044.1"/>
<text text-anchor="start" x="256" y="-1050.9" font-family="Times,serif" font-size="14.00" fill="#000000">source</text>
<polygon fill="#edc571" stroke="transparent" points="196,-1023.1 196,-1044.1 296,-1044.1 296,-1023.1 196,-1023.1"/>
<polygon fill="none" stroke="#000000" points="196,-1023.1 196,-1044.1 296,-1044.1 296,-1023.1 196,-1023.1"/>
<text text-anchor="start" x="203" y="-1029.9" font-family="Times,serif" font-size="14.00" fill="#000000">p:invisible&#45;xml</text>
<polygon fill="none" stroke="#000000" points="196,-1002.1 196,-1023.1 296,-1023.1 296,-1002.1 196,-1002.1"/>
<text text-anchor="start" x="230" y="-1008.9" font-family="Times,serif" font-size="14.00" fill="#000000">result</text>
</g>
<!-- cluster_d196e24&#45;&gt;cluster_d196e45 -->
<g id="edge4" class="edge">
<title>cluster_d196e24:_13&#45;&gt;cluster_d196e45:_18</title>
<path fill="none" stroke="#000000" d="M275,-1197.7939C275,-1142.3896 275,-1126.0226 275,-1075.3455"/>
<polygon fill="#000000" stroke="#000000" points="278.5001,-1075.1 275,-1065.1 271.5001,-1075.1 278.5001,-1075.1"/>
<text text-anchor="middle" x="278" y="-1128.2469" font-family="Times,serif" font-size="14.00" fill="#000000">⋮</text>
</g>
<!-- cluster_d196e34 -->
<g id="node6" class="node">
<title>cluster_d196e34</title>
<polygon fill="none" stroke="#000000" points="33,-1239.7939 33,-1260.7939 205,-1260.7939 205,-1239.7939 33,-1239.7939"/>
<text text-anchor="start" x="82.5" y="-1246.5939" font-family="Times,serif" font-size="14.00" fill="#000000">cx:document</text>
<polygon fill="none" stroke="#000000" points="33,-1218.7939 33,-1239.7939 205,-1239.7939 205,-1218.7939 33,-1218.7939"/>
<text text-anchor="start" x="36" y="-1225.5939" font-family="Times,serif" font-size="14.00" fill="#000000">href=&quot;onepieceSimpler.ixml&quot;</text>
<polygon fill="none" stroke="#000000" points="33,-1197.7939 33,-1218.7939 205,-1218.7939 205,-1197.7939 33,-1197.7939"/>
<text text-anchor="start" x="103" y="-1204.5939" font-family="Times,serif" font-size="14.00" fill="#000000">result</text>
</g>
<!-- cluster_d196e34&#45;&gt;cluster_d196e45 -->
<g id="edge3" class="edge">
<title>cluster_d196e34:_15&#45;&gt;cluster_d196e45:_17</title>
<path fill="none" stroke="#000000" d="M205,-1207.7939C268.8656,-1207.7939 144.7918,-1073.0305 185.8991,-1056.7115"/>
<polygon fill="#000000" stroke="#000000" points="186.6763,-1060.1319 196,-1055.1 185.5734,-1053.2193 186.6763,-1060.1319"/>
</g>
<!-- cluster_d196e57 -->
<g id="node8" class="node">
<title>cluster_d196e57</title>
<polygon fill="none" stroke="#000000" points="260,-898.1 260,-919.1 320,-919.1 320,-898.1 260,-898.1"/>
<text text-anchor="start" x="271.5" y="-904.9" font-family="Times,serif" font-size="14.00" fill="#000000">source</text>
<polygon fill="#edc571" stroke="transparent" points="260,-877.1 260,-898.1 320,-898.1 320,-877.1 260,-877.1"/>
<polygon fill="none" stroke="#000000" points="260,-877.1 260,-898.1 320,-898.1 320,-877.1 260,-877.1"/>
<text text-anchor="start" x="263" y="-883.9" font-family="Times,serif" font-size="14.00" fill="#000000">p:identity</text>
<polygon fill="none" stroke="#000000" points="260,-856.1 260,-877.1 320,-877.1 320,-856.1 260,-856.1"/>
<text text-anchor="start" x="274" y="-862.9" font-family="Times,serif" font-size="14.00" fill="#000000">result</text>
</g>
<!-- cluster_d196e45&#45;&gt;cluster_d196e57 -->
<g id="edge5" class="edge">
<title>cluster_d196e45:_21&#45;&gt;cluster_d196e57:_23</title>
<path fill="none" stroke="#000000" d="M246,-1002.1C246,-964.2196 223.1689,-918.6175 249.9989,-910.4001"/>
<polygon fill="#000000" stroke="#000000" points="250.5346,-913.86 260,-909.1 249.6322,-906.9184 250.5346,-913.86"/>
</g>
<!-- cluster_d196e67 -->
<g id="node9" class="node">
<title>cluster_d196e67</title>
<polygon fill="none" stroke="#000000" points="247,-738.1 247,-759.1 384,-759.1 384,-738.1 247,-738.1"/>
<text text-anchor="start" x="297" y="-744.9" font-family="Times,serif" font-size="14.00" fill="#000000">source</text>
<polygon fill="#edc571" stroke="transparent" points="247,-717.1 247,-738.1 292,-738.1 292,-717.1 247,-717.1"/>
<polygon fill="none" stroke="#000000" points="247,-717.1 247,-738.1 292,-738.1 292,-717.1 247,-717.1"/>
<text text-anchor="start" x="250" y="-723.9" font-family="Times,serif" font-size="14.00" fill="#000000">p:store</text>
<polygon fill="none" stroke="#000000" points="292,-717.1 292,-738.1 384,-738.1 384,-717.1 292,-717.1"/>
<text text-anchor="start" x="295" y="-723.9" font-family="Times,serif" font-size="14.00" fill="#000000">“simple&#45;XML”</text>
<polygon fill="none" stroke="#000000" points="247,-696.1 247,-717.1 292,-717.1 292,-696.1 247,-696.1"/>
<text text-anchor="start" x="253.5" y="-702.9" font-family="Times,serif" font-size="14.00" fill="#000000">result</text>
<polygon fill="none" stroke="#000000" points="292,-696.1 292,-717.1 384,-717.1 384,-696.1 292,-696.1"/>
<text text-anchor="start" x="312" y="-702.9" font-family="Times,serif" font-size="14.00" fill="#000000">result&#45;uri</text>
</g>
<!-- cluster_d196e57&#45;&gt;cluster_d196e67 -->
<g id="edge6" class="edge">
<title>cluster_d196e57:_25&#45;&gt;cluster_d196e67:_27</title>
<path fill="none" stroke="#000000" d="M290,-856.1C290,-815.1284 311.9093,-805.2501 315.5038,-769.3797"/>
<polygon fill="#000000" stroke="#000000" points="319.0137,-769.2571 316,-759.1 312.0219,-768.9196 319.0137,-769.2571"/>
<text text-anchor="middle" x="309" y="-804.4" font-family="Times,serif" font-size="14.00" fill="#000000">⋮</text>
</g>
<!-- cluster_d196e81 -->
<g id="node10" class="node">
<title>cluster_d196e81</title>
<polygon fill="none" stroke="#000000" points="289,-592.1 289,-613.1 349,-613.1 349,-592.1 289,-592.1"/>
<text text-anchor="start" x="300.5" y="-598.9" font-family="Times,serif" font-size="14.00" fill="#000000">source</text>
<polygon fill="#edc571" stroke="transparent" points="289,-571.1 289,-592.1 349,-592.1 349,-571.1 289,-571.1"/>
<polygon fill="none" stroke="#000000" points="289,-571.1 289,-592.1 349,-592.1 349,-571.1 289,-571.1"/>
<text text-anchor="start" x="292" y="-577.9" font-family="Times,serif" font-size="14.00" fill="#000000">p:identity</text>
<polygon fill="none" stroke="#000000" points="289,-550.1 289,-571.1 349,-571.1 349,-550.1 289,-550.1"/>
<text text-anchor="start" x="303" y="-556.9" font-family="Times,serif" font-size="14.00" fill="#000000">result</text>
</g>
<!-- cluster_d196e67&#45;&gt;cluster_d196e81 -->
<g id="edge7" class="edge">
<title>cluster_d196e67:_30&#45;&gt;cluster_d196e81:_33</title>
<path fill="none" stroke="#000000" d="M269,-696.1C269,-687.5948 275.1064,-632.5581 282.999,-611.3839"/>
<polygon fill="#000000" stroke="#000000" points="285.9678,-613.2517 289,-603.1 280.2989,-609.145 285.9678,-613.2517"/>
</g>
<!-- cluster_d196e103 -->
<g id="node12" class="node">
<title>cluster_d196e103</title>
<polygon fill="none" stroke="#000000" points="92,-592.1 92,-613.1 135,-613.1 135,-592.1 92,-592.1"/>
<text text-anchor="start" x="95" y="-598.9" font-family="Times,serif" font-size="14.00" fill="#000000">source</text>
<polygon fill="none" stroke="#000000" points="135,-592.1 135,-613.1 198,-613.1 198,-592.1 135,-592.1"/>
<text text-anchor="start" x="138.5" y="-598.9" font-family="Times,serif" font-size="14.00" fill="#000000">stylesheet</text>
<polygon fill="#edc571" stroke="transparent" points="92,-571.1 92,-592.1 198,-592.1 198,-571.1 92,-571.1"/>
<polygon fill="none" stroke="#000000" points="92,-571.1 92,-592.1 198,-592.1 198,-571.1 92,-571.1"/>
<text text-anchor="start" x="129" y="-577.9" font-family="Times,serif" font-size="14.00" fill="#000000">p:xslt</text>
<polygon fill="none" stroke="#000000" points="92,-550.1 92,-571.1 135,-571.1 135,-550.1 92,-550.1"/>
<text text-anchor="start" x="97.5" y="-556.9" font-family="Times,serif" font-size="14.00" fill="#000000">result</text>
<polygon fill="none" stroke="#000000" points="135,-550.1 135,-571.1 198,-571.1 198,-550.1 135,-550.1"/>
<text text-anchor="start" x="138" y="-556.9" font-family="Times,serif" font-size="14.00" fill="#000000">secondary</text>
</g>
<!-- cluster_d196e67&#45;&gt;cluster_d196e103 -->
<g id="edge8" class="edge">
<title>cluster_d196e67:_30&#45;&gt;cluster_d196e103:_39</title>
<path fill="none" stroke="#000000" d="M247,-706.1C233.6426,-706.1 235.8914,-693.5766 226,-684.6 200.2485,-661.2302 194.7809,-653.555 165,-635.6 147.141,-624.8328 123.1998,-633.7379 115.4976,-622.8159"/>
<polygon fill="#000000" stroke="#000000" points="118.8796,-621.9137 113,-613.1 112.1,-623.6565 118.8796,-621.9137"/>
</g>
<!-- _66 -->
<g id="node16" class="node">
<title>_66</title>
<ellipse fill="#000000" stroke="#000000" cx="261" cy="-582.1" rx="1.8" ry="1.8"/>
</g>
<!-- cluster_d196e67&#45;&gt;_66 -->
<g id="edge13" class="edge">
<title>cluster_d196e67:_31&#45;&gt;_66</title>
<path fill="none" stroke="#000000" d="M338,-696.1C338,-652.2568 289.1782,-664.5238 269,-625.6 263.9662,-615.8898 262.0574,-603.5185 261.3544,-594.4533"/>
<polygon fill="#000000" stroke="#000000" points="264.8432,-594.0916 260.9638,-584.2326 257.8483,-594.359 264.8432,-594.0916"/>
</g>
<!-- _68 -->
<g id="node17" class="node">
<title>_68</title>
<ellipse fill="#000000" stroke="#000000" cx="319" cy="-436.1" rx="1.8" ry="1.8"/>
</g>
<!-- cluster_d196e81&#45;&gt;_68 -->
<g id="edge14" class="edge">
<title>cluster_d196e81:_35&#45;&gt;_68</title>
<path fill="none" stroke="#000000" d="M319,-550.1C319,-512.9365 319,-468.9583 319,-448.1566"/>
<polygon fill="#000000" stroke="#000000" points="322.5001,-447.9802 319,-437.9802 315.5001,-447.9803 322.5001,-447.9802"/>
</g>
<!-- cluster_d196e91 -->
<g id="node11" class="node">
<title>cluster_d196e91</title>
<polygon fill="none" stroke="#000000" points="32,-738.1 32,-759.1 206,-759.1 206,-738.1 32,-738.1"/>
<text text-anchor="start" x="82.5" y="-744.9" font-family="Times,serif" font-size="14.00" fill="#000000">cx:document</text>
<polygon fill="none" stroke="#000000" points="32,-717.1 32,-738.1 206,-738.1 206,-717.1 32,-717.1"/>
<text text-anchor="start" x="35" y="-723.9" font-family="Times,serif" font-size="14.00" fill="#000000">href=&quot;id&#45;transform&#45;regex.xsl&quot;</text>
<polygon fill="none" stroke="#000000" points="32,-696.1 32,-717.1 206,-717.1 206,-696.1 32,-696.1"/>
<text text-anchor="start" x="103" y="-702.9" font-family="Times,serif" font-size="14.00" fill="#000000">result</text>
</g>
<!-- cluster_d196e91&#45;&gt;cluster_d196e103 -->
<g id="edge9" class="edge">
<title>cluster_d196e91:_37&#45;&gt;cluster_d196e103:_40</title>
<path fill="none" stroke="#000000" d="M119,-696.1C119,-657.1487 159.1045,-655.6618 165.9975,-623.1497"/>
<polygon fill="#000000" stroke="#000000" points="169.49,-623.3981 167,-613.1 162.5245,-622.7031 169.49,-623.3981"/>
</g>
<!-- cluster_d196e117 -->
<g id="node13" class="node">
<title>cluster_d196e117</title>
<polygon fill="none" stroke="#000000" points="140,-446.1 140,-467.1 200,-467.1 200,-446.1 140,-446.1"/>
<text text-anchor="start" x="151.5" y="-452.9" font-family="Times,serif" font-size="14.00" fill="#000000">source</text>
<polygon fill="#edc571" stroke="transparent" points="140,-425.1 140,-446.1 200,-446.1 200,-425.1 140,-425.1"/>
<polygon fill="none" stroke="#000000" points="140,-425.1 140,-446.1 200,-446.1 200,-425.1 140,-425.1"/>
<text text-anchor="start" x="143" y="-431.9" font-family="Times,serif" font-size="14.00" fill="#000000">p:identity</text>
<polygon fill="none" stroke="#000000" points="140,-404.1 140,-425.1 200,-425.1 200,-404.1 140,-404.1"/>
<text text-anchor="start" x="154" y="-410.9" font-family="Times,serif" font-size="14.00" fill="#000000">result</text>
</g>
<!-- cluster_d196e103&#45;&gt;cluster_d196e117 -->
<g id="edge10" class="edge">
<title>cluster_d196e103:_49&#45;&gt;cluster_d196e117:_52</title>
<path fill="none" stroke="#000000" d="M113,-550.1C113,-522.5006 118.7396,-515.9343 127,-489.6 130.2011,-479.3947 127.7921,-467.8604 131.0291,-461.648"/>
<polygon fill="#000000" stroke="#000000" points="132.6634,-464.7436 140,-457.1 129.4981,-458.5001 132.6634,-464.7436"/>
</g>
<!-- _70 -->
<g id="node18" class="node">
<title>_70</title>
<ellipse fill="#000000" stroke="#000000" cx="112" cy="-436.1" rx="1.8" ry="1.8"/>
</g>
<!-- cluster_d196e103&#45;&gt;_70 -->
<g id="edge15" class="edge">
<title>cluster_d196e103:_50&#45;&gt;_70</title>
<path fill="none" stroke="#000000" d="M167,-550.1C167,-512.442 134.1407,-514.5022 120,-479.6 115.893,-469.463 113.8796,-457.1398 112.9015,-448.2013"/>
<polygon fill="#000000" stroke="#000000" points="116.3854,-447.8595 112.086,-438.1763 109.4084,-448.4271 116.3854,-447.8595"/>
</g>
<!-- cluster_d196e127 -->
<g id="node14" class="node">
<title>cluster_d196e127</title>
<polygon fill="none" stroke="#000000" points="122,-286.1 122,-307.1 218,-307.1 218,-286.1 122,-286.1"/>
<text text-anchor="start" x="151.5" y="-292.9" font-family="Times,serif" font-size="14.00" fill="#000000">source</text>
<polygon fill="#edc571" stroke="transparent" points="122,-265.1 122,-286.1 218,-286.1 218,-265.1 122,-265.1"/>
<polygon fill="none" stroke="#000000" points="122,-265.1 122,-286.1 218,-286.1 218,-265.1 122,-265.1"/>
<text text-anchor="start" x="150.5" y="-271.9" font-family="Times,serif" font-size="14.00" fill="#000000">p:store</text>
<polygon fill="none" stroke="#000000" points="122,-244.1 122,-265.1 160,-265.1 160,-244.1 122,-244.1"/>
<text text-anchor="start" x="125" y="-250.9" font-family="Times,serif" font-size="14.00" fill="#000000">result</text>
<polygon fill="none" stroke="#000000" points="160,-244.1 160,-265.1 218,-265.1 218,-244.1 160,-244.1"/>
<text text-anchor="start" x="163" y="-250.9" font-family="Times,serif" font-size="14.00" fill="#000000">result&#45;uri</text>
</g>
<!-- cluster_d196e117&#45;&gt;cluster_d196e127 -->
<g id="edge11" class="edge">
<title>cluster_d196e117:_54&#45;&gt;cluster_d196e127:_56</title>
<path fill="none" stroke="#000000" d="M170,-404.1C170,-364.6938 170,-352.3023 170,-317.5393"/>
<polygon fill="#000000" stroke="#000000" points="173.5001,-317.1 170,-307.1 166.5001,-317.1 173.5001,-317.1"/>
<text text-anchor="middle" x="173" y="-352.4" font-family="Times,serif" font-size="14.00" fill="#000000">⋮</text>
</g>
<!-- cluster_d196e139 -->
<g id="node15" class="node">
<title>cluster_d196e139</title>
<polygon fill="none" stroke="#000000" points="104,-140.1 104,-161.1 164,-161.1 164,-140.1 104,-140.1"/>
<text text-anchor="start" x="115.5" y="-146.9" font-family="Times,serif" font-size="14.00" fill="#000000">source</text>
<polygon fill="#edc571" stroke="transparent" points="104,-119.1 104,-140.1 164,-140.1 164,-119.1 104,-119.1"/>
<polygon fill="none" stroke="#000000" points="104,-119.1 104,-140.1 164,-140.1 164,-119.1 104,-119.1"/>
<text text-anchor="start" x="107" y="-125.9" font-family="Times,serif" font-size="14.00" fill="#000000">p:identity</text>
<polygon fill="none" stroke="#000000" points="104,-98.1 104,-119.1 164,-119.1 164,-98.1 104,-98.1"/>
<text text-anchor="start" x="118" y="-104.9" font-family="Times,serif" font-size="14.00" fill="#000000">result</text>
</g>
<!-- cluster_d196e127&#45;&gt;cluster_d196e139 -->
<g id="edge12" class="edge">
<title>cluster_d196e127:_59&#45;&gt;cluster_d196e139:_62</title>
<path fill="none" stroke="#000000" d="M141,-244.1C141,-210.6954 135.3004,-200.1375 134.1872,-171.1951"/>
<polygon fill="#000000" stroke="#000000" points="137.6849,-171.0333 134,-161.1 130.6861,-171.1632 137.6849,-171.0333"/>
</g>
<!-- _72 -->
<g id="node19" class="node">
<title>_72</title>
<ellipse fill="#000000" stroke="#000000" cx="192" cy="-130.1" rx="1.8" ry="1.8"/>
</g>
<!-- cluster_d196e127&#45;&gt;_72 -->
<g id="edge16" class="edge">
<title>cluster_d196e127:_60&#45;&gt;_72</title>
<path fill="none" stroke="#000000" d="M189,-244.1C189,-206.9236 190.614,-162.9514 191.4743,-142.1539"/>
<polygon fill="#000000" stroke="#000000" points="194.9789,-142.1214 191.9135,-131.9797 187.9854,-141.8195 194.9789,-142.1214"/>
</g>
<!-- _74 -->
<g id="node20" class="node">
<title>_74</title>
<ellipse fill="#000000" stroke="#000000" cx="134" cy="-17.8" rx="1.8" ry="1.8"/>
</g>
<!-- cluster_d196e139&#45;&gt;_74 -->
<g id="edge17" class="edge">
<title>cluster_d196e139:_64&#45;&gt;_74</title>
<path fill="none" stroke="#000000" d="M134,-98.1C134,-73.9473 134,-45.7081 134,-29.9756"/>
<polygon fill="#000000" stroke="#000000" points="137.5001,-29.7866 134,-19.7866 130.5001,-29.7866 137.5001,-29.7866"/>
</g>
<!-- cluster_d196e154&#45;&gt;cluster_d196e6 -->
<g id="edge19" class="edge">
<title>cluster_d196e154:_7&#45;&gt;cluster_d196e6:output_7</title>
<path fill="none" stroke="#000000" d="M383,-1218.7939C421.0922,-1218.7939 448.4817,-1177.0565 461.8247,-1151.1197"/>
<polygon fill="#000000" stroke="#000000" points="464.9996,-1152.5943 466.2439,-1142.0728 458.7099,-1149.522 464.9996,-1152.5943"/>
</g>
</g>
</svg>
