<?xml version="1.0" encoding="UTF-8"?>
<!DOCTYPE svg PUBLIC "-//W3C//DTD SVG 1.1//EN" "http://www.w3.org/Graphics/SVG/1.1/DTD/svg11.dtd">

<svg width="500" height="500" viewBox="0 0 500 500" xmlns="http://www.w3.org/2000/svg">
    
    <rect width="500" height="500" fill="#f8d7e0" />
    
    <path d="M250,100
        C210,40 100,80 100,210
        C100,310 250,420 250,420
        C250,420 400,310 400,210
        C400,80 290,40 250,100
        Z"
        fill="#EFC7E5"/>
    
    <text x="250" y="210" text-anchor="middle" fill="#d72d62" font-size="32" font-family="'Comic Sans MS', cursive" dy=".3em">
        i love
    </text>
    <text x="250" y="250" text-anchor="middle" fill="#d72d62" font-size="32" font-family="'Comic Sans MS', cursive" dy=".3em">
        SVG
    </text>
    
    <g>
        <polygon points="120,120 130,140 150,140 135,155 140,175 120,165 100,175 105,155 90,140 110,140"
            fill="#d72d62">
            <animate attributeName="opacity" values="1;0" dur="2s" repeatCount="indefinite" />
        </polygon>
        
        <polygon points="380,120 390,140 410,140 395,155 400,175 380,165 360,175 365,155 350,140 370,140"
            fill="#d72d62">
            <animate attributeName="opacity" values="0;1" dur="2s" repeatCount="indefinite" />
        </polygon>
    </g>
</svg>