<?xml version="1.0" encoding="UTF-8"?>
<svg xmlns="http://www.w3.org/2000/svg" width="100%" height="800">
   <desc>SVG created from A Big Ball of Text with Special Whatsits Inside</desc>
   <rect width="100%" height="100%" fill="rgb(0, 0, 128)"/>
   <text x="50%"
         y="500"
         font-family="Arial"
         font-size="30"
         fill="rgb(255, 255, 255)">
                Way to transform that XML!
                
                
            </text>
   <g transform="translate(100 200)">
      <g transform="translate(200, -200)">
         <polygon points="50,0 61,35 98,35 68,57 79,91 50,70 21,91 32,57 2,35 39,35"
                  fill="rgb(255, 255, 0)"
                  stroke="rgb(0, 0, 0)"
                  stroke-width="2"
                  transform="scale(4)"/>
      </g>
      <g transform="translate(400, -200)">
         <polygon points="50,0 61,35 98,35 68,57 79,91 50,70 21,91 32,57 2,35 39,35"
                  fill="rgb(255, 255, 0)"
                  stroke="rgb(0, 0, 0)"
                  stroke-width="2"
                  transform="scale(1)"/>
      </g>
      <g transform="translate(600, -200)">
         <polygon points="50,0 61,35 98,35 68,57 79,91 50,70 21,91 32,57 2,35 39,35"
                  fill="rgb(255, 255, 0)"
                  stroke="rgb(0, 0, 0)"
                  stroke-width="2"
                  transform="scale(1)"/>
      </g>
   </g>
</svg>
