<?xml version="1.0" encoding="UTF-8"?>
<!DOCTYPE svg PUBLIC "-//W3C//DTD SVG 1.1//EN" "http://www.w3.org/Graphics/SVG/1.1/DTD/svg11.dtd">
<svg xmlns="http://www.w3.org/2000/svg" width="100%" height="100%">
<desc>Labels</desc>
    <g>
    <text x="25" y="130" fill="red" rotate="5">500 pts</text>
    <text x="25" y="170" fill="red" rotate="5">400 pts</text>
    <text x="25" y="210" fill="red" rotate="5">300 pts</text>
    <text x="25" y="250" fill="red" rotate="5">200 pts</text>
    <text x="25" y="290" fill="red" rotate="5">100 pts</text>
    
    <text transform= "scale (0.75)" x="130" y="440" fill="red" rotate="-5">RADIO</text>
    <text transform= "scale (0.75)" x="210" y="440" fill="red" rotate="-5">TV</text>
        <text transform= "scale (0.5)" x="380" y="655" fill="red" rotate="-5">COMPUTER</text>
        <text transform= "scale (0.5)" x="490" y="655" fill="red" rotate="-5">PAINTING</text>
        <text transform= "scale (0.75)" x="390" y="440" fill="red" rotate="-5">VAULT</text>
    
    </g>
    <g transform="scale (0.75), translate(100,0)">
    <desc>Axis</desc>
    <g alignment-baseline="baseline" transform="translate(20,10)">
        <line x1="0" y1="125" x2="0" y2="405" stroke="black" stroke-width="5"/>
        <line x1="0" y1="400" x2="350" y2="400" stroke="black" stroke-width="5"/>
    </g>
    <desc>Mappy Heads</desc>
    <g>
    <desc>Mappy Head</desc>
    <g alignment-baseline="baseline" transform="translate(25,355),scale(0.5)">
        <desc>Ears</desc>
        <circle cx="25" cy="25" r="25" fill="#A3A4B8"/>
        <circle cx="95" cy="25" r="25" fill="#A3A4B8"/>
        <circle cx="25" cy="25" r="15" fill="#FFA4B9"/>
        <circle cx="95" cy="25" r="15" fill="#FFA4B9"/>
        <desc>Face</desc>
        <circle cx="60" cy="55" r="40" fill="#A3A4B8"/>
        <circle cx="45" cy="45" r="10" fill="white"/>
        <circle cx="47" cy="47" r="5" fill="black"/>
        <circle cx="75" cy="45" r="10" fill="white"/>
        <circle cx="77" cy="47" r="5" fill="black"/>
        <circle cx="60" cy="60" r="5" fill="#FAB401"/>
        
    </g>
        <desc>Row 2</desc>
        <g transform="translate(65,0)">
        <desc>Mappy Head</desc>
        <g alignment-baseline="baseline" transform="translate(25,355),scale(0.5)">
            <desc>Ears</desc>
            <circle cx="25" cy="25" r="25" fill="#A3A4B8"/>
            <circle cx="95" cy="25" r="25" fill="#A3A4B8"/>
            <circle cx="25" cy="25" r="15" fill="#FFA4B9"/>
            <circle cx="95" cy="25" r="15" fill="#FFA4B9"/>
            <desc>Face</desc>
            <circle cx="60" cy="55" r="40" fill="#A3A4B8"/>
            <circle cx="45" cy="45" r="10" fill="white"/>
            <circle cx="47" cy="47" r="5" fill="black"/>
            <circle cx="75" cy="45" r="10" fill="white"/>
            <circle cx="77" cy="47" r="5" fill="black"/>
            <circle cx="60" cy="60" r="5" fill="#FAB401"/>
        </g> 
            <desc>Mappy Head</desc>
            <g alignment-baseline="baseline" transform="translate(25,305),scale(0.5)">
                <desc>Ears</desc>
                <circle cx="25" cy="25" r="25" fill="#A3A4B8"/>
                <circle cx="95" cy="25" r="25" fill="#A3A4B8"/>
                <circle cx="25" cy="25" r="15" fill="#FFA4B9"/>
                <circle cx="95" cy="25" r="15" fill="#FFA4B9"/>
                <desc>Face</desc>
                <circle cx="60" cy="55" r="40" fill="#A3A4B8"/>
                <circle cx="45" cy="45" r="10" fill="white"/>
                <circle cx="47" cy="47" r="5" fill="black"/>
                <circle cx="75" cy="45" r="10" fill="white"/>
                <circle cx="77" cy="47" r="5" fill="black"/>
                <circle cx="60" cy="60" r="5" fill="#FAB401"/>
            </g> 
        </g>
        <desc>Row 3</desc>
        <g transform="translate(130,0)">
            <desc>Mappy Head</desc>
            <g alignment-baseline="baseline" transform="translate(25,355),scale(0.5)">
                <desc>Ears</desc>
                <circle cx="25" cy="25" r="25" fill="#A3A4B8"/>
                <circle cx="95" cy="25" r="25" fill="#A3A4B8"/>
                <circle cx="25" cy="25" r="15" fill="#FFA4B9"/>
                <circle cx="95" cy="25" r="15" fill="#FFA4B9"/>
                <desc>Face</desc>
                <circle cx="60" cy="55" r="40" fill="#A3A4B8"/>
                <circle cx="45" cy="45" r="10" fill="white"/>
                <circle cx="47" cy="47" r="5" fill="black"/>
                <circle cx="75" cy="45" r="10" fill="white"/>
                <circle cx="77" cy="47" r="5" fill="black"/>
                <circle cx="60" cy="60" r="5" fill="#FAB401"/>
            </g> 
            <desc>Mappy Head</desc>
            <g alignment-baseline="baseline" transform="translate(25,305),scale(0.5)">
                <desc>Ears</desc>
                <circle cx="25" cy="25" r="25" fill="#A3A4B8"/>
                <circle cx="95" cy="25" r="25" fill="#A3A4B8"/>
                <circle cx="25" cy="25" r="15" fill="#FFA4B9"/>
                <circle cx="95" cy="25" r="15" fill="#FFA4B9"/>
                <desc>Face</desc>
                <circle cx="60" cy="55" r="40" fill="#A3A4B8"/>
                <circle cx="45" cy="45" r="10" fill="white"/>
                <circle cx="47" cy="47" r="5" fill="black"/>
                <circle cx="75" cy="45" r="10" fill="white"/>
                <circle cx="77" cy="47" r="5" fill="black"/>
                <circle cx="60" cy="60" r="5" fill="#FAB401"/>
            </g> 
            <desc>Mappy Head</desc>
            <g alignment-baseline="baseline" transform="translate(25,255),scale(0.5)">
                <desc>Ears</desc>
                <circle cx="25" cy="25" r="25" fill="#A3A4B8"/>
                <circle cx="95" cy="25" r="25" fill="#A3A4B8"/>
                <circle cx="25" cy="25" r="15" fill="#FFA4B9"/>
                <circle cx="95" cy="25" r="15" fill="#FFA4B9"/>
                <desc>Face</desc>
                <circle cx="60" cy="55" r="40" fill="#A3A4B8"/>
                <circle cx="45" cy="45" r="10" fill="white"/>
                <circle cx="47" cy="47" r="5" fill="black"/>
                <circle cx="75" cy="45" r="10" fill="white"/>
                <circle cx="77" cy="47" r="5" fill="black"/>
                <circle cx="60" cy="60" r="5" fill="#FAB401"/>
            </g> 
        </g>
        <desc>Row 4</desc>
        <g transform="translate(195,0)">
            <desc>Mappy Head</desc>
            <g alignment-baseline="baseline" transform="translate(25,355),scale(0.5)">
                <desc>Ears</desc>
                <circle cx="25" cy="25" r="25" fill="#A3A4B8"/>
                <circle cx="95" cy="25" r="25" fill="#A3A4B8"/>
                <circle cx="25" cy="25" r="15" fill="#FFA4B9"/>
                <circle cx="95" cy="25" r="15" fill="#FFA4B9"/>
                <desc>Face</desc>
                <circle cx="60" cy="55" r="40" fill="#A3A4B8"/>
                <circle cx="45" cy="45" r="10" fill="white"/>
                <circle cx="47" cy="47" r="5" fill="black"/>
                <circle cx="75" cy="45" r="10" fill="white"/>
                <circle cx="77" cy="47" r="5" fill="black"/>
                <circle cx="60" cy="60" r="5" fill="#FAB401"/>
            </g> 
            <desc>Mappy Head</desc>
            <g alignment-baseline="baseline" transform="translate(25,305),scale(0.5)">
                <desc>Ears</desc>
                <circle cx="25" cy="25" r="25" fill="#A3A4B8"/>
                <circle cx="95" cy="25" r="25" fill="#A3A4B8"/>
                <circle cx="25" cy="25" r="15" fill="#FFA4B9"/>
                <circle cx="95" cy="25" r="15" fill="#FFA4B9"/>
                <desc>Face</desc>
                <circle cx="60" cy="55" r="40" fill="#A3A4B8"/>
                <circle cx="45" cy="45" r="10" fill="white"/>
                <circle cx="47" cy="47" r="5" fill="black"/>
                <circle cx="75" cy="45" r="10" fill="white"/>
                <circle cx="77" cy="47" r="5" fill="black"/>
                <circle cx="60" cy="60" r="5" fill="#FAB401"/>
            </g> 
            <desc>Mappy Head</desc>
            <g alignment-baseline="baseline" transform="translate(25,255),scale(0.5)">
                <desc>Ears</desc>
                <circle cx="25" cy="25" r="25" fill="#A3A4B8"/>
                <circle cx="95" cy="25" r="25" fill="#A3A4B8"/>
                <circle cx="25" cy="25" r="15" fill="#FFA4B9"/>
                <circle cx="95" cy="25" r="15" fill="#FFA4B9"/>
                <desc>Face</desc>
                <circle cx="60" cy="55" r="40" fill="#A3A4B8"/>
                <circle cx="45" cy="45" r="10" fill="white"/>
                <circle cx="47" cy="47" r="5" fill="black"/>
                <circle cx="75" cy="45" r="10" fill="white"/>
                <circle cx="77" cy="47" r="5" fill="black"/>
                <circle cx="60" cy="60" r="5" fill="#FAB401"/>
            </g> 
            <desc>Mappy Head</desc>
            <g alignment-baseline="baseline" transform="translate(25,205),scale(0.5)">
                <desc>Ears</desc>
                <circle cx="25" cy="25" r="25" fill="#A3A4B8"/>
                <circle cx="95" cy="25" r="25" fill="#A3A4B8"/>
                <circle cx="25" cy="25" r="15" fill="#FFA4B9"/>
                <circle cx="95" cy="25" r="15" fill="#FFA4B9"/>
                <desc>Face</desc>
                <circle cx="60" cy="55" r="40" fill="#A3A4B8"/>
                <circle cx="45" cy="45" r="10" fill="white"/>
                <circle cx="47" cy="47" r="5" fill="black"/>
                <circle cx="75" cy="45" r="10" fill="white"/>
                <circle cx="77" cy="47" r="5" fill="black"/>
                <circle cx="60" cy="60" r="5" fill="#FAB401"/>
            </g> 
        </g>
    
        <desc>Row 5</desc>
        <g transform="translate(260,0)">
            <desc>Mappy Head</desc>
            <g alignment-baseline="baseline" transform="translate(25,355),scale(0.5)">
                <desc>Ears</desc>
                <circle cx="25" cy="25" r="25" fill="#A3A4B8"/>
                <circle cx="95" cy="25" r="25" fill="#A3A4B8"/>
                <circle cx="25" cy="25" r="15" fill="#FFA4B9"/>
                <circle cx="95" cy="25" r="15" fill="#FFA4B9"/>
                <desc>Face</desc>
                <circle cx="60" cy="55" r="40" fill="#A3A4B8"/>
                <circle cx="45" cy="45" r="10" fill="white"/>
                <circle cx="47" cy="47" r="5" fill="black"/>
                <circle cx="75" cy="45" r="10" fill="white"/>
                <circle cx="77" cy="47" r="5" fill="black"/>
                <circle cx="60" cy="60" r="5" fill="#FAB401"/>
            </g> 
            <desc>Mappy Head</desc>
            <g alignment-baseline="baseline" transform="translate(25,305),scale(0.5)">
                <desc>Ears</desc>
                <circle cx="25" cy="25" r="25" fill="#A3A4B8"/>
                <circle cx="95" cy="25" r="25" fill="#A3A4B8"/>
                <circle cx="25" cy="25" r="15" fill="#FFA4B9"/>
                <circle cx="95" cy="25" r="15" fill="#FFA4B9"/>
                <desc>Face</desc>
                <circle cx="60" cy="55" r="40" fill="#A3A4B8"/>
                <circle cx="45" cy="45" r="10" fill="white"/>
                <circle cx="47" cy="47" r="5" fill="black"/>
                <circle cx="75" cy="45" r="10" fill="white"/>
                <circle cx="77" cy="47" r="5" fill="black"/>
                <circle cx="60" cy="60" r="5" fill="#FAB401"/>
            </g> 
            <desc>Mappy Head</desc>
            <g alignment-baseline="baseline" transform="translate(25,255),scale(0.5)">
                <desc>Ears</desc>
                <circle cx="25" cy="25" r="25" fill="#A3A4B8"/>
                <circle cx="95" cy="25" r="25" fill="#A3A4B8"/>
                <circle cx="25" cy="25" r="15" fill="#FFA4B9"/>
                <circle cx="95" cy="25" r="15" fill="#FFA4B9"/>
                <desc>Face</desc>
                <circle cx="60" cy="55" r="40" fill="#A3A4B8"/>
                <circle cx="45" cy="45" r="10" fill="white"/>
                <circle cx="47" cy="47" r="5" fill="black"/>
                <circle cx="75" cy="45" r="10" fill="white"/>
                <circle cx="77" cy="47" r="5" fill="black"/>
                <circle cx="60" cy="60" r="5" fill="#FAB401"/>
            </g> 
            <desc>Mappy Head</desc>
            <g alignment-baseline="baseline" transform="translate(25,205),scale(0.5)">
                <desc>Ears</desc>
                <circle cx="25" cy="25" r="25" fill="#A3A4B8"/>
                <circle cx="95" cy="25" r="25" fill="#A3A4B8"/>
                <circle cx="25" cy="25" r="15" fill="#FFA4B9"/>
                <circle cx="95" cy="25" r="15" fill="#FFA4B9"/>
                <desc>Face</desc>
                <circle cx="60" cy="55" r="40" fill="#A3A4B8"/>
                <circle cx="45" cy="45" r="10" fill="white"/>
                <circle cx="47" cy="47" r="5" fill="black"/>
                <circle cx="75" cy="45" r="10" fill="white"/>
                <circle cx="77" cy="47" r="5" fill="black"/>
                <circle cx="60" cy="60" r="5" fill="#FAB401"/>
            </g> 
            <desc>Mappy Head</desc>
            <g alignment-baseline="baseline" transform="translate(25,155),scale(0.5)">
                <desc>Ears</desc>
                <circle cx="25" cy="25" r="25" fill="#A3A4B8"/>
                <circle cx="95" cy="25" r="25" fill="#A3A4B8"/>
                <circle cx="25" cy="25" r="15" fill="#FFA4B9"/>
                <circle cx="95" cy="25" r="15" fill="#FFA4B9"/>
                <desc>Face</desc>
                <circle cx="60" cy="55" r="40" fill="#A3A4B8"/>
                <circle cx="45" cy="45" r="10" fill="white"/>
                <circle cx="47" cy="47" r="5" fill="black"/>
                <circle cx="75" cy="45" r="10" fill="white"/>
                <circle cx="77" cy="47" r="5" fill="black"/>
                <circle cx="60" cy="60" r="5" fill="#FAB401"/>
            </g> 
        </g>
    </g>
</g>
</svg>