<?xml version="1.0" encoding="UTF-8"?>
<!DOCTYPE svg PUBLIC "-//W3C//DTD SVG 1.0//EN" "http://www.w3.org/TR/2001/REC-SVG-20010904/DTD/svg10.dtd">
<svg xmlns="http://www.w3.org/2000/svg" width="100%" height="100%">
    <desc>Graph</desc>
    <g alignment-baseline="baseline">
        <!--Write your SVG line and rectangle and text elements here!-->
        <rect width="1000" height="500" x="50" y="50" fill="#66B2FF" stroke="black" stroke-width="1"/>
    </g>
    <g alignment-baseline="baseline">
        <line x1="50" y1="75" x2="1050" y2="75" stroke="black" stroke-width="1"/>
        <line x1="50" y1="100" x2="1050" y2="100" stroke="black" stroke-width="1"/>
        <line x1="50" y1="125" x2="1050" y2="125" stroke="black" stroke-width="1"/>
        <line x1="50" y1="150" x2="1050" y2="150" stroke="black" stroke-width="1"/>
        <line x1="50" y1="175" x2="1050" y2="175" stroke="black" stroke-width="1"/>
        <line x1="50" y1="200" x2="1050" y2="200" stroke="red" stroke-width="3"/>
        <line x1="50" y1="225" x2="1050" y2="225" stroke="black" stroke-width="1"/>
        <line x1="50" y1="250" x2="1050" y2="250" stroke="black" stroke-width="1"/>
        <line x1="50" y1="275" x2="1050" y2="275" stroke="black" stroke-width="1"/>
        <line x1="50" y1="300" x2="1050" y2="300" stroke="black" stroke-width="1"/>
        <line x1="50" y1="325" x2="1050" y2="325" stroke="black" stroke-width="1"/>
        <line id="island1xred" x1="50" y1="350" x2="1050" y2="350" stroke="red" stroke-width="3"/>
        <line x1="50" y1="375" x2="1050" y2="375" stroke="black" stroke-width="1"/>
        <line x1="50" y1="400" x2="1050" y2="400" stroke="black" stroke-width="1"/>
        <line x1="50" y1="425" x2="1050" y2="425" stroke="black" stroke-width="1"/>
        <line x1="50" y1="450" x2="1050" y2="450" stroke="black" stroke-width="1"/>
        <line x1="50" y1="475" x2="1050" y2="475" stroke="black" stroke-width="1"/>
        <line x1="50" y1="500" x2="1050" y2="500" stroke="black" stroke-width="1"/>
        <line x1="50" y1="525" x2="1050" y2="525" stroke="black" stroke-width="1"/>
        <line x1="50" y1="500" x2="1050" y2="500" stroke="black" stroke-width="1"/>
    </g>
    <g alignment-baseline="baseline">
        <line x1="75" y1="50" x2="75" y2="550" stroke="black" stroke-width="1"/>
        <line x1="100" y1="50" x2="100" y2="550" stroke="black" stroke-width="1"/>
        <line x1="125" y1="50" x2="125" y2="550" stroke="black" stroke-width="1"/>
        <line x1="150" y1="50" x2="150" y2="550" stroke="red" stroke-width="3"/>
        <line x1="175" y1="50" x2="175" y2="550" stroke="black" stroke-width="1"/>
        <line x1="200" y1="50" x2="200" y2="550" stroke="black" stroke-width="1"/>
        <line x1="225" y1="50" x2="225" y2="550" stroke="black" stroke-width="1"/>
        <line x1="250" y1="50" x2="250" y2="550" stroke="black" stroke-width="1"/>
        <line x1="275" y1="50" x2="275" y2="550" stroke="black" stroke-width="1"/>
        <line x1="300" y1="50" x2="300" y2="550" stroke="black" stroke-width="1"/>
        <line x1="325" y1="50" x2="325" y2="550" stroke="black" stroke-width="1"/>
        <line x1="350" y1="50" x2="350" y2="550" stroke="black" stroke-width="1"/>
        <line x1="375" y1="50" x2="375" y2="550" stroke="black" stroke-width="1"/>
        <line x1="400" y1="50" x2="400" y2="550" stroke="black" stroke-width="1"/>
        <line x1="425" y1="50" x2="425" y2="550" stroke="black" stroke-width="1"/>
        <line x1="450" y1="50" x2="450" y2="550" stroke="black" stroke-width="1"/>
        <line x1="475" y1="50" x2="475" y2="550" stroke="red" stroke-width="3"/>
        <line x1="500" y1="50" x2="500" y2="550" stroke="black" stroke-width="1"/>
        <line x1="525" y1="50" x2="525" y2="550" stroke="black" stroke-width="1"/>
        <line x1="550" y1="50" x2="550" y2="550" stroke="black" stroke-width="1"/>
        <line x1="575" y1="50" x2="575" y2="550" stroke="black" stroke-width="1"/>
        <line x1="600" y1="50" x2="600" y2="550" stroke="black" stroke-width="1"/>
        <line x1="625" y1="50" x2="625" y2="550" stroke="black" stroke-width="1"/>
        <line x1="650" y1="50" x2="650" y2="550" stroke="black" stroke-width="1"/>
        <line x1="675" y1="50" x2="675" y2="550" stroke="black" stroke-width="1"/>
        <line x1="700" y1="50" x2="700" y2="550" stroke="black" stroke-width="1"/>
        <line x1="725" y1="50" x2="725" y2="550" stroke="black" stroke-width="1"/>
        <line x1="750" y1="50" x2="750" y2="550" stroke="black" stroke-width="1"/>
        <line x1="775" y1="50" x2="775" y2="550" stroke="black" stroke-width="1"/>
        <line x1="800" y1="50" x2="800" y2="550" stroke="black" stroke-width="1"/>
        <line x1="825" y1="50" x2="825" y2="550" stroke="black" stroke-width="1"/>
        <line x1="850" y1="50" x2="850" y2="550" stroke="black" stroke-width="1"/>
        <line x1="875" y1="50" x2="875" y2="550" stroke="black" stroke-width="1"/>
        <line x1="900" y1="50" x2="900" y2="550" stroke="red" stroke-width="3"/>
        <line x1="925" y1="50" x2="925" y2="550" stroke="black" stroke-width="1"/>
        <line x1="950" y1="50" x2="950" y2="550" stroke="black" stroke-width="1"/>
        <line x1="975" y1="50" x2="975" y2="550" stroke="black" stroke-width="1"/>
        <line x1="1000" y1="50" x2="1000" y2="550" stroke="black" stroke-width="1"/>
        <line x1="1025" y1="50" x2="1025" y2="550" stroke="black" stroke-width="1"/>
        <line x1="1050" y1="50" x2="1050" y2="550" stroke="black" stroke-width="1"/>
    </g>
    <g alignment-baseline="baseline">
        <text x="500" y="40" fill="black" font-size="35">Islands!</text>
        <text x="18" y="565" fill="black">(0,0)</text>
    </g>
    <g alignment-baseline="baseline">
        <text x="29" y="50" fill="black">20</text>
        <text x="29" y="75" fill="black">19</text>
        <text x="29" y="100" fill="black">18</text>
        <text x="29" y="125" fill="black">17</text>
        <text x="29" y="150" fill="black">16</text>
        <text x="29" y="175" fill="black">15</text>
        <text x="29" y="200" fill="black">14</text>
        <text x="29" y="225" fill="black">13</text>
        <text x="29" y="250" fill="black">12</text>
        <text x="29" y="275" fill="black">11</text>
        <text x="29" y="300" fill="black">10</text>
        <text x="37" y="325" fill="black">9</text>
        <text x="37" y="350" fill="black">8</text>
        <text x="37" y="375" fill="black">7</text>
        <text x="37" y="400" fill="black">6</text>
        <text x="37" y="425" fill="black">5</text>
        <text x="37" y="450" fill="black">4</text>
        <text x="37" y="475" fill="black">3</text>
        <text x="37" y="500" fill="black">2</text>
        <text x="37" y="525" fill="black">1</text>
    </g>
    <g alignment-baseline="baseline">
        <text x="75" y="565" fill="black">1</text>
        <text x="100" y="565" fill="black">2</text>
        <text x="125" y="565" fill="black">3</text>
        <text x="150" y="565" fill="black">4</text>
        <text x="175" y="565" fill="black">5</text>
        <text x="200" y="565" fill="black">6</text>
        <text x="225" y="565" fill="black">7</text>
        <text x="250" y="565" fill="black">8</text>
        <text x="275" y="565" fill="black">9</text>
        <text x="300" y="565" fill="black">10</text>
        <text x="325" y="565" fill="black">11</text>
        <text x="350" y="565" fill="black">12</text>
        <text x="375" y="565" fill="black">13</text>
        <text x="400" y="565" fill="black">14</text>
        <text x="425" y="565" fill="black">15</text>
        <text x="450" y="565" fill="black">16</text>
        <text x="475" y="565" fill="black">17</text>
        <text x="500" y="565" fill="black">18</text>
        <text x="525" y="565" fill="black">19</text>
        <text x="550" y="565" fill="black">20</text>
        <text x="575" y="565" fill="black">21</text>
        <text x="600" y="565" fill="black">22</text>
        <text x="625" y="565" fill="black">23</text>
        <text x="650" y="565" fill="black">24</text>
        <text x="675" y="565" fill="black">25</text>
        <text x="700" y="565" fill="black">26</text>
        <text x="725" y="565" fill="black">27</text>
        <text x="750" y="565" fill="black">28</text>
        <text x="775" y="565" fill="black">29</text>
        <text x="800" y="565" fill="black">30</text>
        <text x="825" y="565" fill="black">31</text>
        <text x="850" y="565" fill="black">32</text>
        <text x="875" y="565" fill="black">33</text>
        <text x="900" y="565" fill="black">34</text>
        <text x="925" y="565" fill="black">35</text>
        <text x="950" y="565" fill="black">36</text>
        <text x="975" y="565" fill="black">37</text>
        <text x="1000" y="565" fill="black">38</text>
        <text x="1025" y="565" fill="black">39</text>
        <text x="1050" y="565" fill="black">40</text>
        
    </g>
    <g alignment-baseline="baseline">
        <circle cx="100" cy="650" r="50" fill="red" stroke="black" stroke-width="1">
            <animate attributeName="cx" begin="0s" dur="10s" from="100" to="1000" repeatCount="indefinite"/>
        </circle>
        <circle cx="100" cy="650" r="50" fill="orange" stroke="black" stroke-width="1">
            <animate attributeName="cx" begin="1.13s" dur="10s" from="100" to="1000" repeatCount="indefinite"/>
        </circle>
        <circle cx="100" cy="650" r="50" fill="yellow" stroke="black" stroke-width="1">
            <animate attributeName="cx" begin="2.26s" dur="10s" from="100" to="1000" repeatCount="indefinite"/>
        </circle>
        <circle cx="100" cy="650" r="50" fill="green" stroke="black" stroke-width="1">
            <animate attributeName="cx" begin="3.39s" dur="10s" from="100" to="1000" repeatCount="indefinite"/>
        </circle>
        <circle cx="100" cy="650" r="50" fill="blue" stroke="black" stroke-width="1">
            <animate attributeName="cx" begin="4.52s" dur="10s" from="100" to="1000" repeatCount="indefinite"/>
        </circle>
        <circle cx="100" cy="650" r="50" fill="purple" stroke="black" stroke-width="1">
            <animate attributeName="cx" begin="5.65s" dur="10s" from="100" to="1000" repeatCount="indefinite"/>
        </circle>
        <circle cx="100" cy="650" r="50" fill="pink" stroke="black" stroke-width="1">
            <animate attributeName="cx" begin="6.78s" dur="10s" from="100" to="1000" repeatCount="indefinite"/>
        </circle>
        <circle cx="100" cy="650" r="50" fill="brown" stroke="black" stroke-width="1">
            <animate attributeName="cx" begin="7.91s" dur="10s" from="100" to="1000" repeatCount="indefinite"/>
        </circle>
    </g>
    <g alignment-baseline="baseline">
        <circle r="15" cx="150" cy="200" fill="#006600" stroke="#FFE5CC" stroke-width="3"/>
        <circle r="15" cx="475" cy="350" fill="#006600" stroke="#FFE5CC" stroke-width="3"/>
        <circle r="15" cx="900" cy="350" fill="#006600" stroke="#FFE5CC" stroke-width="3"/>
    </g>
</svg>