<?xml version="1.0" encoding="UTF-8"?>
<svg width="100%">
   <g transform="translate(20 500)">
      <line x1="0" y1="0" x2="0" y2="-500"/>
      <line x1="0" y1="0" x2="500" y2=""/>
      <rect x="100"
            y="0"
            width="50"
            height="55"
            fill="gray"
            stroke="black"
            stroke-width="1"/>
      <rect x="200"
            y="0"
            width="50"
            height="42"
            fill="gray"
            stroke="black"
            stroke-width="1"/>
      <rect x="300"
            y="0"
            width="50"
            height="58"
            fill="gray"
            stroke="black"
            stroke-width="1"/>
      <rect x="400"
            y="0"
            width="50"
            height="52"
            fill="gray"
            stroke="black"
            stroke-width="1"/>
      <rect x="500"
            y="0"
            width="50"
            height="42"
            fill="gray"
            stroke="black"
            stroke-width="1"/>
      <rect x="600"
            y="0"
            width="50"
            height="46"
            fill="gray"
            stroke="black"
            stroke-width="1"/>
      <rect x="700"
            y="0"
            width="50"
            height="38"
            fill="gray"
            stroke="black"
            stroke-width="1"/>
      <rect x="800"
            y="0"
            width="50"
            height="42"
            fill="gray"
            stroke="black"
            stroke-width="1"/>
      <rect x="900"
            y="0"
            width="50"
            height="160"
            fill="gray"
            stroke="black"
            stroke-width="1"/>
      <rect x="1000"
            y="0"
            width="50"
            height="290"
            fill="gray"
            stroke="black"
            stroke-width="1"/>
      <rect x="1100"
            y="0"
            width="50"
            height="110"
            fill="gray"
            stroke="black"
            stroke-width="1"/>
      <rect x="1200"
            y="0"
            width="50"
            height="110"
            fill="gray"
            stroke="black"
            stroke-width="1"/>
      <rect x="1300"
            y="0"
            width="50"
            height="90"
            fill="gray"
            stroke="black"
            stroke-width="1"/>
   </g>
</svg>
