<?xml version="1.0" encoding="UTF-8"?>
<svg xmlns="http://www.w3.org/2000/svg" width="100%">
   <desc>SVG created from A Big Ball of Text with Special Whatsits Inside</desc>
   <g id="grid">
      <line x1="100"
            y1="-500"
            x2="100"
            y2="0"
            stroke="lightgray"
            stroke-width="0.5"/>
      <line x1="0"
            y1="-50"
            x2="1000"
            y2="-50"
            stroke="lightgray"
            stroke-width="0.5"/>
      <line x1="200"
            y1="-500"
            x2="200"
            y2="0"
            stroke="lightgray"
            stroke-width="0.5"/>
      <line x1="0"
            y1="-100"
            x2="1000"
            y2="-100"
            stroke="lightgray"
            stroke-width="0.5"/>
      <line x1="300"
            y1="-500"
            x2="300"
            y2="0"
            stroke="lightgray"
            stroke-width="0.5"/>
      <line x1="0"
            y1="-150"
            x2="1000"
            y2="-150"
            stroke="lightgray"
            stroke-width="0.5"/>
      <line x1="400"
            y1="-500"
            x2="400"
            y2="0"
            stroke="lightgray"
            stroke-width="0.5"/>
      <line x1="0"
            y1="-200"
            x2="1000"
            y2="-200"
            stroke="lightgray"
            stroke-width="0.5"/>
      <line x1="500"
            y1="-500"
            x2="500"
            y2="0"
            stroke="lightgray"
            stroke-width="0.5"/>
      <line x1="0"
            y1="-250"
            x2="1000"
            y2="-250"
            stroke="lightgray"
            stroke-width="0.5"/>
      <line x1="600"
            y1="-500"
            x2="600"
            y2="0"
            stroke="lightgray"
            stroke-width="0.5"/>
      <line x1="0"
            y1="-300"
            x2="1000"
            y2="-300"
            stroke="lightgray"
            stroke-width="0.5"/>
      <line x1="700"
            y1="-500"
            x2="700"
            y2="0"
            stroke="lightgray"
            stroke-width="0.5"/>
      <line x1="0"
            y1="-350"
            x2="1000"
            y2="-350"
            stroke="lightgray"
            stroke-width="0.5"/>
      <line x1="800"
            y1="-500"
            x2="800"
            y2="0"
            stroke="lightgray"
            stroke-width="0.5"/>
      <line x1="0"
            y1="-400"
            x2="1000"
            y2="-400"
            stroke="lightgray"
            stroke-width="0.5"/>
      <line x1="900"
            y1="-500"
            x2="900"
            y2="0"
            stroke="lightgray"
            stroke-width="0.5"/>
      <line x1="0"
            y1="-450"
            x2="1000"
            y2="-450"
            stroke="lightgray"
            stroke-width="0.5"/>
      <line x1="1000"
            y1="-500"
            x2="1000"
            y2="0"
            stroke="lightgray"
            stroke-width="0.5"/>
      <line x1="0"
            y1="-500"
            x2="1000"
            y2="-500"
            stroke="lightgray"
            stroke-width="0.5"/>
   </g>
   <g transform="translate(20 500)">
      <circle cx="200"
              cy="-250"
              r="50"
              fill="purple"
              stroke="black"
              stroke-width="2"/>
      <text x="200" y="-260" font-size="14" fill="black"/>
      <circle cx="400"
              cy="-250"
              r="50"
              fill="purple"
              stroke="black"
              stroke-width="2"/>
      <text x="400" y="-260" font-size="14" fill="black"/>
      <circle cx="600"
              cy="-250"
              r="40"
              fill="purple"
              stroke="black"
              stroke-width="2"/>
      <text x="600" y="-260" font-size="14" fill="black"/>
   </g>
</svg>
