<svg xmlns="http://www.w3.org/2000/svg"
     width="100%"
     height="700"
     viewBox="0 0 1400 700">
   <desc>
                SVG created from A Big Ball of Text with Special Whatsits Inside</desc>
   <text x="120" y="50" font-family="sans-serif" font-size="22">
                magicEgg vs non-magicEgg specials (two purple bars per blob)
            </text>
   <line x1="120"
         y1="90"
         x2="120"
         y2="560"
         stroke="black"
         stroke-width="2"/>
   <line x1="120"
         y1="560"
         x2="1340"
         y2="560"
         stroke="black"
         stroke-width="2"/>
   <text x="45"
         y="325"
         font-family="sans-serif"
         font-size="12"
         transform="rotate(-90 45 325)">
                count of specials
            </text>
   <line x1="112" y1="560" x2="120" y2="560" stroke="black"/>
   <text x="105"
         y="564"
         font-family="sans-serif"
         font-size="10"
         text-anchor="end">0</text>
   <line x1="112" y1="542" x2="120" y2="542" stroke="black"/>
   <text x="105"
         y="546"
         font-family="sans-serif"
         font-size="10"
         text-anchor="end">1</text>
   <line x1="112" y1="524" x2="120" y2="524" stroke="black"/>
   <text x="105"
         y="528"
         font-family="sans-serif"
         font-size="10"
         text-anchor="end">2</text>
   <line x1="112" y1="506" x2="120" y2="506" stroke="black"/>
   <text x="105"
         y="510"
         font-family="sans-serif"
         font-size="10"
         text-anchor="end">3</text>
   <line x1="112" y1="488" x2="120" y2="488" stroke="black"/>
   <text x="105"
         y="492"
         font-family="sans-serif"
         font-size="10"
         text-anchor="end">4</text>
   <line x1="112" y1="470" x2="120" y2="470" stroke="black"/>
   <text x="105"
         y="474"
         font-family="sans-serif"
         font-size="10"
         text-anchor="end">5</text>
   <line x1="112" y1="452" x2="120" y2="452" stroke="black"/>
   <text x="105"
         y="456"
         font-family="sans-serif"
         font-size="10"
         text-anchor="end">6</text>
   <line x1="112" y1="434" x2="120" y2="434" stroke="black"/>
   <text x="105"
         y="438"
         font-family="sans-serif"
         font-size="10"
         text-anchor="end">7</text>
   <rect x="341" y="488" width="34" height="72" fill="#7a3db8"/>
   <rect x="385" y="434" width="34" height="126" fill="#c7a6e2"/>
   <text x="346"
         y="480"
         font-family="sans-serif"
         font-size="12"
         text-anchor="middle">4</text>
   <text x="414"
         y="426"
         font-family="sans-serif"
         font-size="12"
         text-anchor="middle">7</text>
   <text x="380"
         y="600"
         font-family="sans-serif"
         font-size="12"
         text-anchor="middle">Blob the First</text>
   <text x="380"
         y="620"
         font-family="sans-serif"
         font-size="11"
         text-anchor="middle">
                    dark = magicEgg | light = non-magic
                </text>
   <rect x="601" y="470" width="34" height="90" fill="#7a3db8"/>
   <rect x="645" y="524" width="34" height="36" fill="#c7a6e2"/>
   <text x="606"
         y="462"
         font-family="sans-serif"
         font-size="12"
         text-anchor="middle">5</text>
   <text x="674"
         y="516"
         font-family="sans-serif"
         font-size="12"
         text-anchor="middle">2</text>
   <text x="640"
         y="600"
         font-family="sans-serif"
         font-size="12"
         text-anchor="middle">Blob the Second</text>
   <text x="640"
         y="620"
         font-family="sans-serif"
         font-size="11"
         text-anchor="middle">
                    dark = magicEgg | light = non-magic
                </text>
   <rect x="861" y="488" width="34" height="72" fill="#7a3db8"/>
   <rect x="905" y="506" width="34" height="54" fill="#c7a6e2"/>
   <text x="866"
         y="480"
         font-family="sans-serif"
         font-size="12"
         text-anchor="middle">4</text>
   <text x="934"
         y="498"
         font-family="sans-serif"
         font-size="12"
         text-anchor="middle">3</text>
   <text x="900"
         y="600"
         font-family="sans-serif"
         font-size="12"
         text-anchor="middle">Blob the Third</text>
   <text x="900"
         y="620"
         font-family="sans-serif"
         font-size="11"
         text-anchor="middle">
                    dark = magicEgg | light = non-magic
                </text>
   <g transform="translate(980 95)">
      <rect x="0" y="0" width="18" height="18" fill="#7a3db8"/>
      <text x="28" y="14" font-family="sans-serif" font-size="12">magicEgg specials</text>
      <rect x="0" y="28" width="18" height="18" fill="#c7a6e2"/>
      <text x="28" y="42" font-family="sans-serif" font-size="12">non-magicEgg specials</text>
   </g>
</svg>
