<?xml version="1.0" encoding="UTF-8" standalone="no"?>
<!DOCTYPE svg PUBLIC "-//W3C//DTD SVG 1.1//EN"
 "http://www.w3.org/Graphics/SVG/1.1/DTD/svg11.dtd">
<!-- Generated by graphviz version 2.40.1 (20161225.0304)
 -->
<!-- Title: pipeline Pages: 1 -->
<svg width="526pt" height="2467pt"
 viewBox="0.00 0.00 526.00 2466.99" xmlns="http://www.w3.org/2000/svg" xmlns:xlink="http://www.w3.org/1999/xlink">
<g id="graph0" class="graph" transform="scale(1 1) rotate(0) translate(4 2462.9877)">
<title>pipeline</title>
<polygon fill="#ffffff" stroke="transparent" points="-4,4 -4,-2462.9877 522,-2462.9877 522,4 -4,4"/>
<g id="cluster_d197e3" class="cluster">
<title>cluster_d197e3</title>
</g>
<g id="cluster_d197e6" class="cluster">
<title>cluster_d197e6</title>
</g>
<g id="cluster_d197e2" class="cluster">
<title>cluster_d197e2</title>
</g>
<g id="cluster_onepiece_to_XML" class="cluster">
<title>cluster_onepiece_to_XML</title>
<path fill="none" stroke="#56b4e9" stroke-width="2" d="M28,-16C28,-16 372,-16 372,-16 378,-16 384,-22 384,-28 384,-28 384,-2345.2939 384,-2345.2939 384,-2351.2939 378,-2357.2939 372,-2357.2939 372,-2357.2939 28,-2357.2939 28,-2357.2939 22,-2357.2939 16,-2351.2939 16,-2345.2939 16,-2345.2939 16,-28 16,-28 16,-22 22,-16 28,-16"/>
<text text-anchor="middle" x="200" y="-2342.0939" font-family="sans-serif" font-size="14.00" fill="#000000">p:declare&#45;step “onepiece&#45;to&#45;XML”</text>
</g>
<g id="cluster_invisible_xml" class="cluster">
<title>cluster_invisible_xml</title>
</g>
<g id="cluster_document" class="cluster">
<title>cluster_document</title>
</g>
<g id="cluster_identity" class="cluster">
<title>cluster_identity</title>
</g>
<g id="cluster_d197e10" class="cluster">
<title>cluster_d197e10</title>
</g>
<g id="cluster_identity_2" class="cluster">
<title>cluster_identity_2</title>
</g>
<g id="cluster_simple_XML" class="cluster">
<title>cluster_simple_XML</title>
</g>
<g id="cluster_identity_3" class="cluster">
<title>cluster_identity_3</title>
</g>
<g id="cluster_document_2" class="cluster">
<title>cluster_document_2</title>
</g>
<g id="cluster_xslt" class="cluster">
<title>cluster_xslt</title>
</g>
<g id="cluster_identity_4" class="cluster">
<title>cluster_identity_4</title>
</g>
<g id="cluster_store" class="cluster">
<title>cluster_store</title>
</g>
<g id="cluster_identity_5" class="cluster">
<title>cluster_identity_5</title>
</g>
<g id="cluster_splitter" class="cluster">
<title>cluster_splitter</title>
</g>
<g id="cluster_d197e159" class="cluster">
<title>cluster_d197e159</title>
</g>
<!-- cluster_d197e3 -->
<g id="node1" class="node">
<title>cluster_d197e3</title>
<polygon fill="none" stroke="#000000" points="41.3641,-2409.8552 93,-2392.446 144.6359,-2409.8552 144.5877,-2438.0238 41.4123,-2438.0238 41.3641,-2409.8552"/>
<polygon fill="none" stroke="#000000" points="72,-2406.6408 72,-2427.6408 115,-2427.6408 115,-2406.6408 72,-2406.6408"/>
<text text-anchor="start" x="75" y="-2413.4408" font-family="Times,serif" font-size="14.00" fill="#000000">source</text>
</g>
<!-- cluster_d197e10 -->
<g id="node3" class="node">
<title>cluster_d197e10</title>
<polygon fill="none" stroke="#000000" points="72,-2293.2939 72,-2314.2939 115,-2314.2939 115,-2293.2939 72,-2293.2939"/>
<text text-anchor="start" x="75" y="-2300.0939" font-family="Times,serif" font-size="14.00" fill="#000000">source</text>
<polygon fill="none" stroke="#000000" points="72,-2272.2939 72,-2293.2939 115,-2293.2939 115,-2272.2939 72,-2272.2939"/>
<text text-anchor="start" x="75" y="-2279.0939" font-family="Times,serif" font-size="14.00" fill="#000000">source</text>
</g>
<!-- cluster_d197e3&#45;&gt;cluster_d197e10 -->
<g id="edge1" class="edge">
<title>cluster_d197e3:input_38&#45;&gt;cluster_d197e10:_3</title>
<path fill="none" stroke="#000000" d="M94,-2406.4721C94,-2389.8748 94,-2355.6651 94,-2324.3378"/>
<polygon fill="#000000" stroke="#000000" points="97.5001,-2324.2938 94,-2314.2939 90.5001,-2324.2939 97.5001,-2324.2938"/>
</g>
<!-- cluster_d197e6 -->
<g id="node2" class="node">
<title>cluster_d197e6</title>
<polygon fill="none" stroke="#000000" points="502.3963,-2213.7325 455,-2231.1417 407.6037,-2213.7325 407.6479,-2185.5639 502.3521,-2185.5639 502.3963,-2213.7325"/>
<polygon fill="none" stroke="#000000" points="436,-2194.9469 436,-2215.9469 474,-2215.9469 474,-2194.9469 436,-2194.9469"/>
<text text-anchor="start" x="439" y="-2201.7469" font-family="Times,serif" font-size="14.00" fill="#000000">result</text>
</g>
<!-- cluster_identity -->
<g id="node4" class="node">
<title>cluster_identity</title>
<polygon fill="none" stroke="#000000" points="64,-2042.1 64,-2063.1 124,-2063.1 124,-2042.1 64,-2042.1"/>
<text text-anchor="start" x="75.5" y="-2048.9" font-family="Times,serif" font-size="14.00" fill="#000000">source</text>
<polygon fill="#edc571" stroke="transparent" points="64,-2021.1 64,-2042.1 124,-2042.1 124,-2021.1 64,-2021.1"/>
<polygon fill="none" stroke="#000000" points="64,-2021.1 64,-2042.1 124,-2042.1 124,-2021.1 64,-2021.1"/>
<text text-anchor="start" x="67" y="-2027.9" font-family="Times,serif" font-size="14.00" fill="#000000">p:identity</text>
<polygon fill="none" stroke="#000000" points="64,-2000.1 64,-2021.1 124,-2021.1 124,-2000.1 64,-2000.1"/>
<text text-anchor="start" x="78" y="-2006.9" font-family="Times,serif" font-size="14.00" fill="#000000">result</text>
</g>
<!-- cluster_d197e10&#45;&gt;cluster_identity -->
<g id="edge19" class="edge">
<title>cluster_d197e10:_1&#45;&gt;cluster_identity:_5</title>
<path fill="none" stroke="#000000" d="M94,-2272.2939C94,-2242.8063 94,-2235.4345 94,-2205.9469 94,-2205.9469 94,-2205.9469 94,-2105.1 94,-2090.3708 94,-2084.3583 94,-2073.3065"/>
<polygon fill="#000000" stroke="#000000" points="97.5001,-2073.1 94,-2063.1 90.5001,-2073.1 97.5001,-2073.1"/>
</g>
<!-- cluster_invisible_xml -->
<g id="node6" class="node">
<title>cluster_invisible_xml</title>
<polygon fill="none" stroke="#000000" points="208,-1806.1 208,-1827.1 265,-1827.1 265,-1806.1 208,-1806.1"/>
<text text-anchor="start" x="211" y="-1812.9" font-family="Times,serif" font-size="14.00" fill="#000000">grammar</text>
<polygon fill="none" stroke="#000000" points="265,-1806.1 265,-1827.1 308,-1827.1 308,-1806.1 265,-1806.1"/>
<text text-anchor="start" x="268" y="-1812.9" font-family="Times,serif" font-size="14.00" fill="#000000">source</text>
<polygon fill="#edc571" stroke="transparent" points="208,-1785.1 208,-1806.1 308,-1806.1 308,-1785.1 208,-1785.1"/>
<polygon fill="none" stroke="#000000" points="208,-1785.1 208,-1806.1 308,-1806.1 308,-1785.1 208,-1785.1"/>
<text text-anchor="start" x="215" y="-1791.9" font-family="Times,serif" font-size="14.00" fill="#000000">p:invisible&#45;xml</text>
<polygon fill="none" stroke="#000000" points="208,-1764.1 208,-1785.1 308,-1785.1 308,-1764.1 208,-1764.1"/>
<text text-anchor="start" x="242" y="-1770.9" font-family="Times,serif" font-size="14.00" fill="#000000">result</text>
</g>
<!-- cluster_identity&#45;&gt;cluster_invisible_xml -->
<g id="edge4" class="edge">
<title>cluster_identity:_6&#45;&gt;cluster_invisible_xml:_10</title>
<path fill="none" stroke="#000000" d="M124,-2010.1C137.0507,-2010.1 133.9432,-1996.9175 144,-1988.6 163.005,-1972.8819 191,-1983.7627 191,-1959.1 191,-1959.1 191,-1959.1 191,-1869.1 191,-1826.5309 271.209,-1865.6028 284.9949,-1837.0658"/>
<polygon fill="#000000" stroke="#000000" points="288.4587,-1837.5939 287,-1827.1 281.5962,-1836.2132 288.4587,-1837.5939"/>
<text text-anchor="middle" x="194" y="-1910.4" font-family="Times,serif" font-size="14.00" fill="#000000">⋮</text>
</g>
<!-- cluster_document -->
<g id="node5" class="node">
<title>cluster_document</title>
<polygon fill="#edc571" stroke="transparent" points="164,-2042.1 164,-2063.1 336,-2063.1 336,-2042.1 164,-2042.1"/>
<polygon fill="none" stroke="#000000" points="164,-2042.1 164,-2063.1 336,-2063.1 336,-2042.1 164,-2042.1"/>
<text text-anchor="start" x="213.5" y="-2048.9" font-family="Times,serif" font-size="14.00" fill="#000000">cx:document</text>
<polygon fill="none" stroke="#000000" points="164,-2021.1 164,-2042.1 336,-2042.1 336,-2021.1 164,-2021.1"/>
<text text-anchor="start" x="167" y="-2027.9" font-family="Times,serif" font-size="14.00" fill="#000000">href=&quot;onepieceSimpler.ixml&quot;</text>
<polygon fill="none" stroke="#000000" points="164,-2000.1 164,-2021.1 336,-2021.1 336,-2000.1 164,-2000.1"/>
<text text-anchor="start" x="234" y="-2006.9" font-family="Times,serif" font-size="14.00" fill="#000000">result</text>
</g>
<!-- cluster_document&#45;&gt;cluster_invisible_xml -->
<g id="edge3" class="edge">
<title>cluster_document:_7&#45;&gt;cluster_invisible_xml:_9</title>
<path fill="none" stroke="#000000" d="M250,-2000.1C250,-1981.6141 243,-1977.5859 243,-1959.1 243,-1959.1 243,-1959.1 243,-1869.1 243,-1854.1677 238.6417,-1848.4329 236.803,-1837.3809"/>
<polygon fill="#000000" stroke="#000000" points="240.2681,-1836.7971 236,-1827.1 233.2894,-1837.3422 240.2681,-1836.7971"/>
</g>
<!-- cluster_identity_2 -->
<g id="node7" class="node">
<title>cluster_identity_2</title>
<polygon fill="none" stroke="#000000" points="228,-1584.1 228,-1605.1 288,-1605.1 288,-1584.1 228,-1584.1"/>
<text text-anchor="start" x="239.5" y="-1590.9" font-family="Times,serif" font-size="14.00" fill="#000000">source</text>
<polygon fill="#edc571" stroke="transparent" points="228,-1563.1 228,-1584.1 288,-1584.1 288,-1563.1 228,-1563.1"/>
<polygon fill="none" stroke="#000000" points="228,-1563.1 228,-1584.1 288,-1584.1 288,-1563.1 228,-1563.1"/>
<text text-anchor="start" x="231" y="-1569.9" font-family="Times,serif" font-size="14.00" fill="#000000">p:identity</text>
<polygon fill="none" stroke="#000000" points="228,-1542.1 228,-1563.1 288,-1563.1 288,-1542.1 228,-1542.1"/>
<text text-anchor="start" x="242" y="-1548.9" font-family="Times,serif" font-size="14.00" fill="#000000">result</text>
</g>
<!-- cluster_invisible_xml&#45;&gt;cluster_identity_2 -->
<g id="edge5" class="edge">
<title>cluster_invisible_xml:_11&#45;&gt;cluster_identity_2:_12</title>
<path fill="none" stroke="#000000" d="M258,-1764.1C258,-1745.8778 258,-1741.3222 258,-1723.1 258,-1723.1 258,-1723.1 258,-1647.1 258,-1632.3708 258,-1626.3583 258,-1615.3065"/>
<polygon fill="#000000" stroke="#000000" points="261.5001,-1615.1 258,-1605.1 254.5001,-1615.1 261.5001,-1615.1"/>
</g>
<!-- cluster_simple_XML -->
<g id="node8" class="node">
<title>cluster_simple_XML</title>
<polygon fill="none" stroke="#000000" points="189,-1348.1 189,-1369.1 326,-1369.1 326,-1348.1 189,-1348.1"/>
<text text-anchor="start" x="239" y="-1354.9" font-family="Times,serif" font-size="14.00" fill="#000000">source</text>
<polygon fill="#edc571" stroke="transparent" points="189,-1327.1 189,-1348.1 234,-1348.1 234,-1327.1 189,-1327.1"/>
<polygon fill="none" stroke="#000000" points="189,-1327.1 189,-1348.1 234,-1348.1 234,-1327.1 189,-1327.1"/>
<text text-anchor="start" x="192" y="-1333.9" font-family="Times,serif" font-size="14.00" fill="#000000">p:store</text>
<polygon fill="none" stroke="#000000" points="234,-1327.1 234,-1348.1 326,-1348.1 326,-1327.1 234,-1327.1"/>
<text text-anchor="start" x="237" y="-1333.9" font-family="Times,serif" font-size="14.00" fill="#000000">“simple&#45;XML”</text>
<polygon fill="none" stroke="#000000" points="189,-1306.1 189,-1327.1 234,-1327.1 234,-1306.1 189,-1306.1"/>
<text text-anchor="start" x="195.5" y="-1312.9" font-family="Times,serif" font-size="14.00" fill="#000000">result</text>
<polygon fill="none" stroke="#000000" points="234,-1306.1 234,-1327.1 326,-1327.1 326,-1306.1 234,-1306.1"/>
<text text-anchor="start" x="254" y="-1312.9" font-family="Times,serif" font-size="14.00" fill="#000000">result&#45;uri</text>
</g>
<!-- cluster_identity_2&#45;&gt;cluster_simple_XML -->
<g id="edge6" class="edge">
<title>cluster_identity_2:_13&#45;&gt;cluster_simple_XML:_14</title>
<path fill="none" stroke="#000000" d="M258,-1542.1C258,-1523.8778 258,-1519.3222 258,-1501.1 258,-1501.1 258,-1501.1 258,-1411.1 258,-1396.3708 258,-1390.3583 258,-1379.3065"/>
<polygon fill="#000000" stroke="#000000" points="261.5001,-1379.1 258,-1369.1 254.5001,-1379.1 261.5001,-1379.1"/>
<text text-anchor="middle" x="261" y="-1452.4" font-family="Times,serif" font-size="14.00" fill="#000000">⋮</text>
</g>
<!-- _17 -->
<g id="node15" class="node">
<title>_17</title>
<ellipse fill="#000000" stroke="#000000" cx="242" cy="-1116.1" rx="1.8" ry="1.8"/>
</g>
<!-- cluster_simple_XML&#45;&gt;_17 -->
<g id="edge11" class="edge">
<title>cluster_simple_XML:_16&#45;&gt;_17</title>
<path fill="none" stroke="#000000" d="M280,-1306.1C280,-1284.9854 256,-1286.2146 256,-1265.1 256,-1265.1 256,-1265.1 256,-1189.1 256,-1175.7205 252.5435,-1172.7356 250,-1159.6 247.945,-1148.9869 245.7308,-1136.8914 244.154,-1128.1536"/>
<polygon fill="#000000" stroke="#000000" points="247.5612,-1127.3236 242.3535,-1118.097 240.6707,-1128.5573 247.5612,-1127.3236"/>
</g>
<!-- cluster_splitter -->
<g id="node20" class="node">
<title>cluster_splitter</title>
<polygon fill="none" stroke="#000000" points="270,-1126.1 270,-1147.1 360,-1147.1 360,-1126.1 270,-1126.1"/>
<text text-anchor="start" x="296.5" y="-1132.9" font-family="Times,serif" font-size="14.00" fill="#000000">source</text>
<polygon fill="#edc571" stroke="transparent" points="270,-1105.1 270,-1126.1 360,-1126.1 360,-1105.1 270,-1105.1"/>
<polygon fill="none" stroke="#000000" points="270,-1105.1 270,-1126.1 360,-1126.1 360,-1105.1 270,-1105.1"/>
<text text-anchor="start" x="287" y="-1111.9" font-family="Times,serif" font-size="14.00" fill="#000000">cx:splitter</text>
<polygon fill="none" stroke="#000000" points="270,-1084.1 270,-1105.1 315,-1105.1 315,-1084.1 270,-1084.1"/>
<text text-anchor="start" x="273" y="-1090.9" font-family="Times,serif" font-size="14.00" fill="#000000">result1</text>
<polygon fill="none" stroke="#000000" points="315,-1084.1 315,-1105.1 360,-1105.1 360,-1084.1 315,-1084.1"/>
<text text-anchor="start" x="318" y="-1090.9" font-family="Times,serif" font-size="14.00" fill="#000000">result2</text>
</g>
<!-- cluster_simple_XML&#45;&gt;cluster_splitter -->
<g id="edge18" class="edge">
<title>cluster_simple_XML:_15&#45;&gt;cluster_splitter:_18</title>
<path fill="none" stroke="#000000" d="M211,-1306.1C211,-1287.1133 223,-1284.0867 223,-1265.1 223,-1265.1 223,-1265.1 223,-1189.1 223,-1168.756 245.2045,-1175.4162 258,-1159.6 261.7868,-1154.9192 261.7383,-1148.8616 262.56,-1144.2112"/>
<polygon fill="#000000" stroke="#000000" points="265.1893,-1146.5397 270,-1137.1 260.3526,-1141.4794 265.1893,-1146.5397"/>
</g>
<!-- cluster_identity_3 -->
<g id="node9" class="node">
<title>cluster_identity_3</title>
<polygon fill="none" stroke="#000000" points="262,-904.1 262,-925.1 322,-925.1 322,-904.1 262,-904.1"/>
<text text-anchor="start" x="273.5" y="-910.9" font-family="Times,serif" font-size="14.00" fill="#000000">source</text>
<polygon fill="#edc571" stroke="transparent" points="262,-883.1 262,-904.1 322,-904.1 322,-883.1 262,-883.1"/>
<polygon fill="none" stroke="#000000" points="262,-883.1 262,-904.1 322,-904.1 322,-883.1 262,-883.1"/>
<text text-anchor="start" x="265" y="-889.9" font-family="Times,serif" font-size="14.00" fill="#000000">p:identity</text>
<polygon fill="none" stroke="#000000" points="262,-862.1 262,-883.1 322,-883.1 322,-862.1 262,-862.1"/>
<text text-anchor="start" x="276" y="-868.9" font-family="Times,serif" font-size="14.00" fill="#000000">result</text>
</g>
<!-- _29 -->
<g id="node16" class="node">
<title>_29</title>
<ellipse fill="#000000" stroke="#000000" cx="292" cy="-672.1" rx="1.8" ry="1.8"/>
</g>
<!-- cluster_identity_3&#45;&gt;_29 -->
<g id="edge12" class="edge">
<title>cluster_identity_3:_22&#45;&gt;_29</title>
<path fill="none" stroke="#000000" d="M292,-862.1C292,-843.8778 292,-839.3222 292,-821.1 292,-821.1 292,-821.1 292,-745.1 292,-723.5865 292,-698.5068 292,-684.0493"/>
<polygon fill="#000000" stroke="#000000" points="295.5001,-683.906 292,-673.906 288.5001,-683.906 295.5001,-683.906"/>
</g>
<!-- cluster_document_2 -->
<g id="node10" class="node">
<title>cluster_document_2</title>
<polygon fill="#edc571" stroke="transparent" points="40,-1126.1 40,-1147.1 214,-1147.1 214,-1126.1 40,-1126.1"/>
<polygon fill="none" stroke="#000000" points="40,-1126.1 40,-1147.1 214,-1147.1 214,-1126.1 40,-1126.1"/>
<text text-anchor="start" x="90.5" y="-1132.9" font-family="Times,serif" font-size="14.00" fill="#000000">cx:document</text>
<polygon fill="none" stroke="#000000" points="40,-1105.1 40,-1126.1 214,-1126.1 214,-1105.1 40,-1105.1"/>
<text text-anchor="start" x="43" y="-1111.9" font-family="Times,serif" font-size="14.00" fill="#000000">href=&quot;id&#45;transform&#45;regex.xsl&quot;</text>
<polygon fill="none" stroke="#000000" points="40,-1084.1 40,-1105.1 214,-1105.1 214,-1084.1 40,-1084.1"/>
<text text-anchor="start" x="111" y="-1090.9" font-family="Times,serif" font-size="14.00" fill="#000000">result</text>
</g>
<!-- cluster_xslt -->
<g id="node11" class="node">
<title>cluster_xslt</title>
<polygon fill="none" stroke="#000000" points="82,-904.1 82,-925.1 125,-925.1 125,-904.1 82,-904.1"/>
<text text-anchor="start" x="85" y="-910.9" font-family="Times,serif" font-size="14.00" fill="#000000">source</text>
<polygon fill="none" stroke="#000000" points="125,-904.1 125,-925.1 188,-925.1 188,-904.1 125,-904.1"/>
<text text-anchor="start" x="128.5" y="-910.9" font-family="Times,serif" font-size="14.00" fill="#000000">stylesheet</text>
<polygon fill="#edc571" stroke="transparent" points="82,-883.1 82,-904.1 188,-904.1 188,-883.1 82,-883.1"/>
<polygon fill="none" stroke="#000000" points="82,-883.1 82,-904.1 188,-904.1 188,-883.1 82,-883.1"/>
<text text-anchor="start" x="119" y="-889.9" font-family="Times,serif" font-size="14.00" fill="#000000">p:xslt</text>
<polygon fill="none" stroke="#000000" points="82,-862.1 82,-883.1 125,-883.1 125,-862.1 82,-862.1"/>
<text text-anchor="start" x="87.5" y="-868.9" font-family="Times,serif" font-size="14.00" fill="#000000">result</text>
<polygon fill="none" stroke="#000000" points="125,-862.1 125,-883.1 188,-883.1 188,-862.1 125,-862.1"/>
<text text-anchor="start" x="128" y="-868.9" font-family="Times,serif" font-size="14.00" fill="#000000">secondary</text>
</g>
<!-- cluster_document_2&#45;&gt;cluster_xslt -->
<g id="edge7" class="edge">
<title>cluster_document_2:_8&#45;&gt;cluster_xslt:_24</title>
<path fill="none" stroke="#000000" d="M127,-1084.1C127,-1064.6966 142,-1062.5034 142,-1043.1 142,-1043.1 142,-1043.1 142,-967.1 142,-951.3048 151.5251,-946.5996 155.3947,-935.3097"/>
<polygon fill="#000000" stroke="#000000" points="158.9042,-935.5223 157,-925.1 151.9892,-934.435 158.9042,-935.5223"/>
</g>
<!-- cluster_identity_4 -->
<g id="node12" class="node">
<title>cluster_identity_4</title>
<polygon fill="none" stroke="#000000" points="96,-682.1 96,-703.1 156,-703.1 156,-682.1 96,-682.1"/>
<text text-anchor="start" x="107.5" y="-688.9" font-family="Times,serif" font-size="14.00" fill="#000000">source</text>
<polygon fill="#edc571" stroke="transparent" points="96,-661.1 96,-682.1 156,-682.1 156,-661.1 96,-661.1"/>
<polygon fill="none" stroke="#000000" points="96,-661.1 96,-682.1 156,-682.1 156,-661.1 96,-661.1"/>
<text text-anchor="start" x="99" y="-667.9" font-family="Times,serif" font-size="14.00" fill="#000000">p:identity</text>
<polygon fill="none" stroke="#000000" points="96,-640.1 96,-661.1 156,-661.1 156,-640.1 96,-640.1"/>
<text text-anchor="start" x="110" y="-646.9" font-family="Times,serif" font-size="14.00" fill="#000000">result</text>
</g>
<!-- cluster_xslt&#45;&gt;cluster_identity_4 -->
<g id="edge8" class="edge">
<title>cluster_xslt:_25&#45;&gt;cluster_identity_4:_27</title>
<path fill="none" stroke="#000000" d="M103,-862.1C103,-843.5341 111,-839.6659 111,-821.1 111,-821.1 111,-821.1 111,-745.1 111,-736.153 113.0618,-734.0508 116,-725.6 118.1338,-719.4629 121.2591,-716.5393 123.4463,-712.8862"/>
<polygon fill="#000000" stroke="#000000" points="126.8615,-713.6597 126,-703.1 120.0884,-711.8922 126.8615,-713.6597"/>
</g>
<!-- _30 -->
<g id="node17" class="node">
<title>_30</title>
<ellipse fill="#000000" stroke="#000000" cx="68" cy="-672.1" rx="1.8" ry="1.8"/>
</g>
<!-- cluster_xslt&#45;&gt;_30 -->
<g id="edge13" class="edge">
<title>cluster_xslt:_26&#45;&gt;_30</title>
<path fill="none" stroke="#000000" d="M157,-862.1C157,-842.3735 140,-840.8265 140,-821.1 140,-821.1 140,-821.1 140,-745.1 140,-713.7793 95.2127,-740.3358 76,-715.6 69.0847,-706.6968 67.47,-693.6987 67.3506,-684.2307"/>
<polygon fill="#000000" stroke="#000000" points="70.8577,-684.1326 67.7797,-673.9948 63.8638,-683.8393 70.8577,-684.1326"/>
</g>
<!-- cluster_store -->
<g id="node13" class="node">
<title>cluster_store</title>
<polygon fill="none" stroke="#000000" points="78,-446.1 78,-467.1 174,-467.1 174,-446.1 78,-446.1"/>
<text text-anchor="start" x="107.5" y="-452.9" font-family="Times,serif" font-size="14.00" fill="#000000">source</text>
<polygon fill="#edc571" stroke="transparent" points="78,-425.1 78,-446.1 174,-446.1 174,-425.1 78,-425.1"/>
<polygon fill="none" stroke="#000000" points="78,-425.1 78,-446.1 174,-446.1 174,-425.1 78,-425.1"/>
<text text-anchor="start" x="106.5" y="-431.9" font-family="Times,serif" font-size="14.00" fill="#000000">p:store</text>
<polygon fill="none" stroke="#000000" points="78,-404.1 78,-425.1 116,-425.1 116,-404.1 78,-404.1"/>
<text text-anchor="start" x="81" y="-410.9" font-family="Times,serif" font-size="14.00" fill="#000000">result</text>
<polygon fill="none" stroke="#000000" points="116,-404.1 116,-425.1 174,-425.1 174,-404.1 116,-404.1"/>
<text text-anchor="start" x="119" y="-410.9" font-family="Times,serif" font-size="14.00" fill="#000000">result&#45;uri</text>
</g>
<!-- cluster_identity_4&#45;&gt;cluster_store -->
<g id="edge9" class="edge">
<title>cluster_identity_4:_28&#45;&gt;cluster_store:_31</title>
<path fill="none" stroke="#000000" d="M126,-640.1C126,-621.8778 126,-617.3222 126,-599.1 126,-599.1 126,-599.1 126,-509.1 126,-494.3708 126,-488.3583 126,-477.3065"/>
<polygon fill="#000000" stroke="#000000" points="129.5001,-477.1 126,-467.1 122.5001,-477.1 129.5001,-477.1"/>
<text text-anchor="middle" x="129" y="-550.4" font-family="Times,serif" font-size="14.00" fill="#000000">⋮</text>
</g>
<!-- cluster_identity_5 -->
<g id="node14" class="node">
<title>cluster_identity_5</title>
<polygon fill="none" stroke="#000000" points="64,-224.1 64,-245.1 124,-245.1 124,-224.1 64,-224.1"/>
<text text-anchor="start" x="75.5" y="-230.9" font-family="Times,serif" font-size="14.00" fill="#000000">source</text>
<polygon fill="#edc571" stroke="transparent" points="64,-203.1 64,-224.1 124,-224.1 124,-203.1 64,-203.1"/>
<polygon fill="none" stroke="#000000" points="64,-203.1 64,-224.1 124,-224.1 124,-203.1 64,-203.1"/>
<text text-anchor="start" x="67" y="-209.9" font-family="Times,serif" font-size="14.00" fill="#000000">p:identity</text>
<polygon fill="none" stroke="#000000" points="64,-182.1 64,-203.1 124,-203.1 124,-182.1 64,-182.1"/>
<text text-anchor="start" x="78" y="-188.9" font-family="Times,serif" font-size="14.00" fill="#000000">result</text>
</g>
<!-- cluster_store&#45;&gt;cluster_identity_5 -->
<g id="edge10" class="edge">
<title>cluster_store:_32&#45;&gt;cluster_identity_5:_34</title>
<path fill="none" stroke="#000000" d="M97,-404.1C97,-385.8561 95,-381.3439 95,-363.1 95,-363.1 95,-363.1 95,-287.1 95,-272.3667 94.3774,-266.3599 94.1147,-255.308"/>
<polygon fill="#000000" stroke="#000000" points="97.6122,-255.06 94,-245.1 90.6127,-255.1387 97.6122,-255.06"/>
</g>
<!-- _36 -->
<g id="node18" class="node">
<title>_36</title>
<ellipse fill="#000000" stroke="#000000" cx="152" cy="-214.1" rx="1.8" ry="1.8"/>
</g>
<!-- cluster_store&#45;&gt;_36 -->
<g id="edge14" class="edge">
<title>cluster_store:_33&#45;&gt;_36</title>
<path fill="none" stroke="#000000" d="M145,-404.1C145,-385.8561 147,-381.3439 147,-363.1 147,-363.1 147,-363.1 147,-287.1 147,-265.5361 149.1984,-240.4728 150.6798,-226.0322"/>
<polygon fill="#000000" stroke="#000000" points="154.1796,-226.2236 151.7852,-215.9029 147.2209,-225.4641 154.1796,-226.2236"/>
</g>
<!-- _37 -->
<g id="node19" class="node">
<title>_37</title>
<ellipse fill="#000000" stroke="#000000" cx="94" cy="-25.8" rx="1.8" ry="1.8"/>
</g>
<!-- cluster_identity_5&#45;&gt;_37 -->
<g id="edge15" class="edge">
<title>cluster_identity_5:_35&#45;&gt;_37</title>
<path fill="none" stroke="#000000" d="M94,-182.1C94,-163.8778 94,-159.3222 94,-141.1 94,-141.1 94,-141.1 94,-65.1 94,-55.9466 94,-45.5941 94,-37.8129"/>
<polygon fill="#000000" stroke="#000000" points="97.5001,-37.6019 94,-27.6019 90.5001,-37.6019 97.5001,-37.6019"/>
</g>
<!-- cluster_splitter&#45;&gt;cluster_identity_3 -->
<g id="edge16" class="edge">
<title>cluster_splitter:_19&#45;&gt;cluster_identity_3:_21</title>
<path fill="none" stroke="#000000" d="M292,-1084.1C292,-1065.8778 292,-1061.3222 292,-1043.1 292,-1043.1 292,-1043.1 292,-967.1 292,-952.3708 292,-946.3583 292,-935.3065"/>
<polygon fill="#000000" stroke="#000000" points="295.5001,-935.1 292,-925.1 288.5001,-935.1 295.5001,-935.1"/>
</g>
<!-- cluster_splitter&#45;&gt;cluster_xslt -->
<g id="edge17" class="edge">
<title>cluster_splitter:_20&#45;&gt;cluster_xslt:_23</title>
<path fill="none" stroke="#000000" d="M338,-1084.1C338,-1064.9837 325,-1062.2163 325,-1043.1 325,-1043.1 325,-1043.1 325,-967.1 325,-920.618 134.7303,-967.2355 106.4871,-934.573"/>
<polygon fill="#000000" stroke="#000000" points="109.7391,-933.2753 103,-925.1 103.17,-935.6935 109.7391,-933.2753"/>
</g>
<!-- cluster_d197e159 -->
<g id="node21" class="node">
<title>cluster_d197e159</title>
<polygon fill="none" stroke="#000000" points="322,-2282.2939 322,-2303.2939 360,-2303.2939 360,-2282.2939 322,-2282.2939"/>
<text text-anchor="start" x="325" y="-2289.0939" font-family="Times,serif" font-size="14.00" fill="#000000">result</text>
</g>
<!-- cluster_d197e159&#45;&gt;cluster_d197e6 -->
<g id="edge2" class="edge">
<title>cluster_d197e159:_4&#45;&gt;cluster_d197e6:output_39</title>
<path fill="none" stroke="#000000" d="M354.0772,-2282.2741C373.1414,-2267.6671 408.8382,-2240.3162 432.2617,-2222.369"/>
<polygon fill="#000000" stroke="#000000" points="434.4734,-2225.0837 440.2826,-2216.2234 430.216,-2219.5272 434.4734,-2225.0837"/>
</g>
</g>
</svg>
