<?xml version="1.0" encoding="UTF-8" standalone="no"?>
<!DOCTYPE svg PUBLIC "-//W3C//DTD SVG 1.1//EN"
 "http://www.w3.org/Graphics/SVG/1.1/DTD/svg11.dtd">
<!-- Generated by graphviz version 2.40.1 (20161225.0304)
 -->
<!-- Title: pipeline Pages: 1 -->
<svg width="360pt" height="1641pt"
 viewBox="0.00 0.00 360.00 1641.29" xmlns="http://www.w3.org/2000/svg" xmlns:xlink="http://www.w3.org/1999/xlink">
<g id="graph0" class="graph" transform="scale(1 1) rotate(0) translate(4 1637.2939)">
<title>pipeline</title>
<polygon fill="#ffffff" stroke="transparent" points="-4,4 -4,-1637.2939 356,-1637.2939 356,4 -4,4"/>
<g id="cluster_d196e3" class="cluster">
<title>cluster_d196e3</title>
</g>
<g id="cluster_d196e2" class="cluster">
<title>cluster_d196e2</title>
<path fill="none" stroke="#56b4e9" stroke-width="2" d="M20,-8C20,-8 332,-8 332,-8 338,-8 344,-14 344,-20 344,-20 344,-1527.6 344,-1527.6 344,-1533.6 338,-1539.6 332,-1539.6 332,-1539.6 20,-1539.6 20,-1539.6 14,-1539.6 8,-1533.6 8,-1527.6 8,-1527.6 8,-20 8,-20 8,-14 14,-8 20,-8"/>
<text text-anchor="middle" x="176" y="-1524.4" font-family="sans-serif" font-size="14.00" fill="#000000">p:declare&#45;step “onepiece&#45;to&#45;XML”</text>
</g>
<g id="cluster_d196e13" class="cluster">
<title>cluster_d196e13</title>
</g>
<g id="cluster_d196e6" class="cluster">
<title>cluster_d196e6</title>
</g>
<g id="cluster_d196e23" class="cluster">
<title>cluster_d196e23</title>
</g>
<g id="cluster_d196e34" class="cluster">
<title>cluster_d196e34</title>
</g>
<g id="cluster_d196e46" class="cluster">
<title>cluster_d196e46</title>
</g>
<g id="cluster_d196e56" class="cluster">
<title>cluster_d196e56</title>
</g>
<g id="cluster_d196e70" class="cluster">
<title>cluster_d196e70</title>
</g>
<g id="cluster_d196e80" class="cluster">
<title>cluster_d196e80</title>
</g>
<g id="cluster_d196e91" class="cluster">
<title>cluster_d196e91</title>
</g>
<g id="cluster_d196e105" class="cluster">
<title>cluster_d196e105</title>
</g>
<g id="cluster_d196e116" class="cluster">
<title>cluster_d196e116</title>
</g>
<g id="cluster_d196e128" class="cluster">
<title>cluster_d196e128</title>
</g>
<!-- cluster_d196e3 -->
<g id="node1" class="node">
<title>cluster_d196e3</title>
<polygon fill="none" stroke="#000000" points="231.3641,-1584.1613 283,-1566.7522 334.6359,-1584.1613 334.5877,-1612.3299 231.4123,-1612.3299 231.3641,-1584.1613"/>
<polygon fill="none" stroke="#000000" points="262,-1580.9469 262,-1601.9469 305,-1601.9469 305,-1580.9469 262,-1580.9469"/>
<text text-anchor="start" x="265" y="-1587.7469" font-family="Times,serif" font-size="14.00" fill="#000000">source</text>
</g>
<!-- cluster_d196e6 -->
<g id="node2" class="node">
<title>cluster_d196e6</title>
<polygon fill="none" stroke="#000000" points="262,-1475.6 262,-1496.6 305,-1496.6 305,-1475.6 262,-1475.6"/>
<text text-anchor="start" x="265" y="-1482.4" font-family="Times,serif" font-size="14.00" fill="#000000">source</text>
<polygon fill="none" stroke="#000000" points="262,-1454.6 262,-1475.6 305,-1475.6 305,-1454.6 262,-1454.6"/>
<text text-anchor="start" x="265" y="-1461.4" font-family="Times,serif" font-size="14.00" fill="#000000">source</text>
</g>
<!-- cluster_d196e3&#45;&gt;cluster_d196e6 -->
<g id="edge16" class="edge">
<title>cluster_d196e3:input_4&#45;&gt;cluster_d196e6:_4</title>
<path fill="none" stroke="#000000" d="M284,-1580.7551C284,-1565.3459 284,-1534.9275 284,-1506.8191"/>
<polygon fill="#000000" stroke="#000000" points="287.5001,-1506.6 284,-1496.6 280.5001,-1506.6 287.5001,-1506.6"/>
</g>
<!-- cluster_d196e13 -->
<g id="node3" class="node">
<title>cluster_d196e13</title>
<polygon fill="none" stroke="#000000" points="254,-1350.1 254,-1371.1 314,-1371.1 314,-1350.1 254,-1350.1"/>
<text text-anchor="start" x="265.5" y="-1356.9" font-family="Times,serif" font-size="14.00" fill="#000000">source</text>
<polygon fill="#edc571" stroke="transparent" points="254,-1329.1 254,-1350.1 314,-1350.1 314,-1329.1 254,-1329.1"/>
<polygon fill="none" stroke="#000000" points="254,-1329.1 254,-1350.1 314,-1350.1 314,-1329.1 254,-1329.1"/>
<text text-anchor="start" x="257" y="-1335.9" font-family="Times,serif" font-size="14.00" fill="#000000">p:identity</text>
<polygon fill="none" stroke="#000000" points="254,-1308.1 254,-1329.1 314,-1329.1 314,-1308.1 254,-1308.1"/>
<text text-anchor="start" x="268" y="-1314.9" font-family="Times,serif" font-size="14.00" fill="#000000">result</text>
</g>
<!-- cluster_d196e6&#45;&gt;cluster_d196e13 -->
<g id="edge1" class="edge">
<title>cluster_d196e6:_5&#45;&gt;cluster_d196e13:_7</title>
<path fill="none" stroke="#000000" d="M284,-1454.6C284,-1421.113 284,-1410.2886 284,-1381.2279"/>
<polygon fill="#000000" stroke="#000000" points="287.5001,-1381.1 284,-1371.1 280.5001,-1381.1 287.5001,-1381.1"/>
</g>
<!-- cluster_d196e34 -->
<g id="node5" class="node">
<title>cluster_d196e34</title>
<polygon fill="none" stroke="#000000" points="202,-1190.1 202,-1211.1 259,-1211.1 259,-1190.1 202,-1190.1"/>
<text text-anchor="start" x="205" y="-1196.9" font-family="Times,serif" font-size="14.00" fill="#000000">grammar</text>
<polygon fill="none" stroke="#000000" points="259,-1190.1 259,-1211.1 302,-1211.1 302,-1190.1 259,-1190.1"/>
<text text-anchor="start" x="262" y="-1196.9" font-family="Times,serif" font-size="14.00" fill="#000000">source</text>
<polygon fill="#edc571" stroke="transparent" points="202,-1169.1 202,-1190.1 302,-1190.1 302,-1169.1 202,-1169.1"/>
<polygon fill="none" stroke="#000000" points="202,-1169.1 202,-1190.1 302,-1190.1 302,-1169.1 202,-1169.1"/>
<text text-anchor="start" x="209" y="-1175.9" font-family="Times,serif" font-size="14.00" fill="#000000">p:invisible&#45;xml</text>
<polygon fill="none" stroke="#000000" points="202,-1148.1 202,-1169.1 302,-1169.1 302,-1148.1 202,-1148.1"/>
<text text-anchor="start" x="236" y="-1154.9" font-family="Times,serif" font-size="14.00" fill="#000000">result</text>
</g>
<!-- cluster_d196e13&#45;&gt;cluster_d196e34 -->
<g id="edge3" class="edge">
<title>cluster_d196e13:_9&#45;&gt;cluster_d196e34:_14</title>
<path fill="none" stroke="#000000" d="M284,-1308.1C284,-1268.6749 281.4935,-1256.3163 281.0627,-1221.5433"/>
<polygon fill="#000000" stroke="#000000" points="284.56,-1221.0788 281,-1211.1 277.5602,-1221.1209 284.56,-1221.0788"/>
<text text-anchor="middle" x="285" y="-1256.4" font-family="Times,serif" font-size="14.00" fill="#000000">⋮</text>
</g>
<!-- cluster_d196e23 -->
<g id="node4" class="node">
<title>cluster_d196e23</title>
<polygon fill="none" stroke="#000000" points="42,-1350.1 42,-1371.1 214,-1371.1 214,-1350.1 42,-1350.1"/>
<text text-anchor="start" x="91.5" y="-1356.9" font-family="Times,serif" font-size="14.00" fill="#000000">cx:document</text>
<polygon fill="none" stroke="#000000" points="42,-1329.1 42,-1350.1 214,-1350.1 214,-1329.1 42,-1329.1"/>
<text text-anchor="start" x="45" y="-1335.9" font-family="Times,serif" font-size="14.00" fill="#000000">href=&quot;onepieceSimpler.ixml&quot;</text>
<polygon fill="none" stroke="#000000" points="42,-1308.1 42,-1329.1 214,-1329.1 214,-1308.1 42,-1308.1"/>
<text text-anchor="start" x="112" y="-1314.9" font-family="Times,serif" font-size="14.00" fill="#000000">result</text>
</g>
<!-- cluster_d196e23&#45;&gt;cluster_d196e34 -->
<g id="edge2" class="edge">
<title>cluster_d196e23:_11&#45;&gt;cluster_d196e34:_13</title>
<path fill="none" stroke="#000000" d="M214,-1318.1C261.7806,-1318.1 168.5117,-1220.3453 192.0494,-1203.5437"/>
<polygon fill="#000000" stroke="#000000" points="193.1233,-1206.8841 202,-1201.1 191.4538,-1200.0861 193.1233,-1206.8841"/>
</g>
<!-- cluster_d196e46 -->
<g id="node6" class="node">
<title>cluster_d196e46</title>
<polygon fill="none" stroke="#000000" points="222,-1044.1 222,-1065.1 282,-1065.1 282,-1044.1 222,-1044.1"/>
<text text-anchor="start" x="233.5" y="-1050.9" font-family="Times,serif" font-size="14.00" fill="#000000">source</text>
<polygon fill="#edc571" stroke="transparent" points="222,-1023.1 222,-1044.1 282,-1044.1 282,-1023.1 222,-1023.1"/>
<polygon fill="none" stroke="#000000" points="222,-1023.1 222,-1044.1 282,-1044.1 282,-1023.1 222,-1023.1"/>
<text text-anchor="start" x="225" y="-1029.9" font-family="Times,serif" font-size="14.00" fill="#000000">p:identity</text>
<polygon fill="none" stroke="#000000" points="222,-1002.1 222,-1023.1 282,-1023.1 282,-1002.1 222,-1002.1"/>
<text text-anchor="start" x="236" y="-1008.9" font-family="Times,serif" font-size="14.00" fill="#000000">result</text>
</g>
<!-- cluster_d196e34&#45;&gt;cluster_d196e46 -->
<g id="edge4" class="edge">
<title>cluster_d196e34:_17&#45;&gt;cluster_d196e46:_19</title>
<path fill="none" stroke="#000000" d="M252,-1148.1C252,-1114.8135 252,-1104.054 252,-1075.1673"/>
<polygon fill="#000000" stroke="#000000" points="255.5001,-1075.1 252,-1065.1 248.5001,-1075.1 255.5001,-1075.1"/>
</g>
<!-- cluster_d196e56 -->
<g id="node7" class="node">
<title>cluster_d196e56</title>
<polygon fill="none" stroke="#000000" points="183,-884.1 183,-905.1 320,-905.1 320,-884.1 183,-884.1"/>
<text text-anchor="start" x="233" y="-890.9" font-family="Times,serif" font-size="14.00" fill="#000000">source</text>
<polygon fill="#edc571" stroke="transparent" points="183,-863.1 183,-884.1 228,-884.1 228,-863.1 183,-863.1"/>
<polygon fill="none" stroke="#000000" points="183,-863.1 183,-884.1 228,-884.1 228,-863.1 183,-863.1"/>
<text text-anchor="start" x="186" y="-869.9" font-family="Times,serif" font-size="14.00" fill="#000000">p:store</text>
<polygon fill="none" stroke="#000000" points="228,-863.1 228,-884.1 320,-884.1 320,-863.1 228,-863.1"/>
<text text-anchor="start" x="231" y="-869.9" font-family="Times,serif" font-size="14.00" fill="#000000">“simple&#45;XML”</text>
<polygon fill="none" stroke="#000000" points="183,-842.1 183,-863.1 228,-863.1 228,-842.1 183,-842.1"/>
<text text-anchor="start" x="189.5" y="-848.9" font-family="Times,serif" font-size="14.00" fill="#000000">result</text>
<polygon fill="none" stroke="#000000" points="228,-842.1 228,-863.1 320,-863.1 320,-842.1 228,-842.1"/>
<text text-anchor="start" x="248" y="-848.9" font-family="Times,serif" font-size="14.00" fill="#000000">result&#45;uri</text>
</g>
<!-- cluster_d196e46&#45;&gt;cluster_d196e56 -->
<g id="edge5" class="edge">
<title>cluster_d196e46:_21&#45;&gt;cluster_d196e56:_23</title>
<path fill="none" stroke="#000000" d="M252,-1002.1C252,-962.6938 252,-950.3023 252,-915.5393"/>
<polygon fill="#000000" stroke="#000000" points="255.5001,-915.1 252,-905.1 248.5001,-915.1 255.5001,-915.1"/>
<text text-anchor="middle" x="255" y="-950.4" font-family="Times,serif" font-size="14.00" fill="#000000">⋮</text>
</g>
<!-- cluster_d196e70 -->
<g id="node8" class="node">
<title>cluster_d196e70</title>
<polygon fill="none" stroke="#000000" points="246,-738.1 246,-759.1 306,-759.1 306,-738.1 246,-738.1"/>
<text text-anchor="start" x="257.5" y="-744.9" font-family="Times,serif" font-size="14.00" fill="#000000">source</text>
<polygon fill="#edc571" stroke="transparent" points="246,-717.1 246,-738.1 306,-738.1 306,-717.1 246,-717.1"/>
<polygon fill="none" stroke="#000000" points="246,-717.1 246,-738.1 306,-738.1 306,-717.1 246,-717.1"/>
<text text-anchor="start" x="249" y="-723.9" font-family="Times,serif" font-size="14.00" fill="#000000">p:identity</text>
<polygon fill="none" stroke="#000000" points="246,-696.1 246,-717.1 306,-717.1 306,-696.1 246,-696.1"/>
<text text-anchor="start" x="260" y="-702.9" font-family="Times,serif" font-size="14.00" fill="#000000">result</text>
</g>
<!-- cluster_d196e56&#45;&gt;cluster_d196e70 -->
<g id="edge6" class="edge">
<title>cluster_d196e56:_26&#45;&gt;cluster_d196e70:_29</title>
<path fill="none" stroke="#000000" d="M205,-842.1C205,-832.7921 225.1811,-775.6494 238.5992,-755.8478"/>
<polygon fill="#000000" stroke="#000000" points="240.9685,-758.4239 246,-749.1 236.2522,-753.2512 240.9685,-758.4239"/>
</g>
<!-- _62 -->
<g id="node14" class="node">
<title>_62</title>
<ellipse fill="#000000" stroke="#000000" cx="334" cy="-728.1" rx="1.8" ry="1.8"/>
</g>
<!-- cluster_d196e56&#45;&gt;_62 -->
<g id="edge12" class="edge">
<title>cluster_d196e56:_27&#45;&gt;_62</title>
<path fill="none" stroke="#000000" d="M274,-842.1C274,-803.1654 310.527,-807.328 326,-771.6 330.3466,-761.5634 332.333,-749.2289 333.2399,-740.2606"/>
<polygon fill="#000000" stroke="#000000" points="336.738,-740.4097 333.9456,-730.1895 329.7551,-739.9204 336.738,-740.4097"/>
</g>
<!-- cluster_d196e91 -->
<g id="node10" class="node">
<title>cluster_d196e91</title>
<polygon fill="none" stroke="#000000" points="147,-592.1 147,-613.1 209,-613.1 209,-592.1 147,-592.1"/>
<text text-anchor="start" x="150" y="-598.9" font-family="Times,serif" font-size="14.00" fill="#000000">stylesheet</text>
<polygon fill="none" stroke="#000000" points="209,-592.1 209,-613.1 272,-613.1 272,-592.1 209,-592.1"/>
<text text-anchor="start" x="222" y="-598.9" font-family="Times,serif" font-size="14.00" fill="#000000">source</text>
<polygon fill="#edc571" stroke="transparent" points="147,-571.1 147,-592.1 272,-592.1 272,-571.1 147,-571.1"/>
<polygon fill="none" stroke="#000000" points="147,-571.1 147,-592.1 272,-592.1 272,-571.1 147,-571.1"/>
<text text-anchor="start" x="193.5" y="-577.9" font-family="Times,serif" font-size="14.00" fill="#000000">p:xslt</text>
<polygon fill="none" stroke="#000000" points="147,-550.1 147,-571.1 209,-571.1 209,-550.1 147,-550.1"/>
<text text-anchor="start" x="162" y="-556.9" font-family="Times,serif" font-size="14.00" fill="#000000">result</text>
<polygon fill="none" stroke="#000000" points="209,-550.1 209,-571.1 272,-571.1 272,-550.1 209,-550.1"/>
<text text-anchor="start" x="212" y="-556.9" font-family="Times,serif" font-size="14.00" fill="#000000">secondary</text>
</g>
<!-- cluster_d196e70&#45;&gt;cluster_d196e91 -->
<g id="edge8" class="edge">
<title>cluster_d196e70:_31&#45;&gt;cluster_d196e91:_36</title>
<path fill="none" stroke="#000000" d="M276,-696.1C276,-659.8187 247.2549,-654.0102 241.8652,-623.4425"/>
<polygon fill="#000000" stroke="#000000" points="245.3215,-622.7734 241,-613.1 238.3459,-623.357 245.3215,-622.7734"/>
</g>
<!-- cluster_d196e80 -->
<g id="node9" class="node">
<title>cluster_d196e80</title>
<polygon fill="none" stroke="#000000" points="32,-738.1 32,-759.1 206,-759.1 206,-738.1 32,-738.1"/>
<text text-anchor="start" x="82.5" y="-744.9" font-family="Times,serif" font-size="14.00" fill="#000000">cx:document</text>
<polygon fill="none" stroke="#000000" points="32,-717.1 32,-738.1 206,-738.1 206,-717.1 32,-717.1"/>
<text text-anchor="start" x="35" y="-723.9" font-family="Times,serif" font-size="14.00" fill="#000000">href=&quot;id&#45;transform&#45;regex.xsl&quot;</text>
<polygon fill="none" stroke="#000000" points="32,-696.1 32,-717.1 206,-717.1 206,-696.1 32,-696.1"/>
<text text-anchor="start" x="103" y="-702.9" font-family="Times,serif" font-size="14.00" fill="#000000">result</text>
</g>
<!-- cluster_d196e80&#45;&gt;cluster_d196e91 -->
<g id="edge7" class="edge">
<title>cluster_d196e80:_33&#45;&gt;cluster_d196e91:_35</title>
<path fill="none" stroke="#000000" d="M119,-696.1C119,-656.8121 106.4367,-612.0007 136.7246,-604.2658"/>
<polygon fill="#000000" stroke="#000000" points="137.4583,-607.7051 147,-603.1 136.6692,-600.7497 137.4583,-607.7051"/>
</g>
<!-- cluster_d196e105 -->
<g id="node11" class="node">
<title>cluster_d196e105</title>
<polygon fill="none" stroke="#000000" points="148,-446.1 148,-467.1 208,-467.1 208,-446.1 148,-446.1"/>
<text text-anchor="start" x="159.5" y="-452.9" font-family="Times,serif" font-size="14.00" fill="#000000">source</text>
<polygon fill="#edc571" stroke="transparent" points="148,-425.1 148,-446.1 208,-446.1 208,-425.1 148,-425.1"/>
<polygon fill="none" stroke="#000000" points="148,-425.1 148,-446.1 208,-446.1 208,-425.1 148,-425.1"/>
<text text-anchor="start" x="151" y="-431.9" font-family="Times,serif" font-size="14.00" fill="#000000">p:identity</text>
<polygon fill="none" stroke="#000000" points="148,-404.1 148,-425.1 208,-425.1 208,-404.1 148,-404.1"/>
<text text-anchor="start" x="162" y="-410.9" font-family="Times,serif" font-size="14.00" fill="#000000">result</text>
</g>
<!-- cluster_d196e91&#45;&gt;cluster_d196e105 -->
<g id="edge9" class="edge">
<title>cluster_d196e91:_45&#45;&gt;cluster_d196e105:_48</title>
<path fill="none" stroke="#000000" d="M178,-550.1C178,-516.8135 178,-506.054 178,-477.1673"/>
<polygon fill="#000000" stroke="#000000" points="181.5001,-477.1 178,-467.1 174.5001,-477.1 181.5001,-477.1"/>
</g>
<!-- _64 -->
<g id="node15" class="node">
<title>_64</title>
<ellipse fill="#000000" stroke="#000000" cx="241" cy="-436.1" rx="1.8" ry="1.8"/>
</g>
<!-- cluster_d196e91&#45;&gt;_64 -->
<g id="edge13" class="edge">
<title>cluster_d196e91:_46&#45;&gt;_64</title>
<path fill="none" stroke="#000000" d="M241,-550.1C241,-512.9365 241,-468.9583 241,-448.1566"/>
<polygon fill="#000000" stroke="#000000" points="244.5001,-447.9802 241,-437.9802 237.5001,-447.9803 244.5001,-447.9802"/>
</g>
<!-- cluster_d196e116 -->
<g id="node12" class="node">
<title>cluster_d196e116</title>
<polygon fill="none" stroke="#000000" points="130,-286.1 130,-307.1 226,-307.1 226,-286.1 130,-286.1"/>
<text text-anchor="start" x="159.5" y="-292.9" font-family="Times,serif" font-size="14.00" fill="#000000">source</text>
<polygon fill="#edc571" stroke="transparent" points="130,-265.1 130,-286.1 226,-286.1 226,-265.1 130,-265.1"/>
<polygon fill="none" stroke="#000000" points="130,-265.1 130,-286.1 226,-286.1 226,-265.1 130,-265.1"/>
<text text-anchor="start" x="158.5" y="-271.9" font-family="Times,serif" font-size="14.00" fill="#000000">p:store</text>
<polygon fill="none" stroke="#000000" points="130,-244.1 130,-265.1 168,-265.1 168,-244.1 130,-244.1"/>
<text text-anchor="start" x="133" y="-250.9" font-family="Times,serif" font-size="14.00" fill="#000000">result</text>
<polygon fill="none" stroke="#000000" points="168,-244.1 168,-265.1 226,-265.1 226,-244.1 168,-244.1"/>
<text text-anchor="start" x="171" y="-250.9" font-family="Times,serif" font-size="14.00" fill="#000000">result&#45;uri</text>
</g>
<!-- cluster_d196e105&#45;&gt;cluster_d196e116 -->
<g id="edge10" class="edge">
<title>cluster_d196e105:_50&#45;&gt;cluster_d196e116:_52</title>
<path fill="none" stroke="#000000" d="M178,-404.1C178,-364.6938 178,-352.3023 178,-317.5393"/>
<polygon fill="#000000" stroke="#000000" points="181.5001,-317.1 178,-307.1 174.5001,-317.1 181.5001,-317.1"/>
<text text-anchor="middle" x="181" y="-352.4" font-family="Times,serif" font-size="14.00" fill="#000000">⋮</text>
</g>
<!-- cluster_d196e128 -->
<g id="node13" class="node">
<title>cluster_d196e128</title>
<polygon fill="none" stroke="#000000" points="116,-140.1 116,-161.1 176,-161.1 176,-140.1 116,-140.1"/>
<text text-anchor="start" x="127.5" y="-146.9" font-family="Times,serif" font-size="14.00" fill="#000000">source</text>
<polygon fill="#edc571" stroke="transparent" points="116,-119.1 116,-140.1 176,-140.1 176,-119.1 116,-119.1"/>
<polygon fill="none" stroke="#000000" points="116,-119.1 116,-140.1 176,-140.1 176,-119.1 116,-119.1"/>
<text text-anchor="start" x="119" y="-125.9" font-family="Times,serif" font-size="14.00" fill="#000000">p:identity</text>
<polygon fill="none" stroke="#000000" points="116,-98.1 116,-119.1 176,-119.1 176,-98.1 116,-98.1"/>
<text text-anchor="start" x="130" y="-104.9" font-family="Times,serif" font-size="14.00" fill="#000000">result</text>
</g>
<!-- cluster_d196e116&#45;&gt;cluster_d196e128 -->
<g id="edge11" class="edge">
<title>cluster_d196e116:_55&#45;&gt;cluster_d196e128:_58</title>
<path fill="none" stroke="#000000" d="M149,-244.1C149,-210.7918 146.5573,-200.0693 146.0802,-171.1724"/>
<polygon fill="#000000" stroke="#000000" points="149.5797,-171.0718 146,-161.1 142.5799,-171.1276 149.5797,-171.0718"/>
</g>
<!-- _66 -->
<g id="node16" class="node">
<title>_66</title>
<ellipse fill="#000000" stroke="#000000" cx="204" cy="-130.1" rx="1.8" ry="1.8"/>
</g>
<!-- cluster_d196e116&#45;&gt;_66 -->
<g id="edge14" class="edge">
<title>cluster_d196e116:_56&#45;&gt;_66</title>
<path fill="none" stroke="#000000" d="M197,-244.1C197,-206.8665 200.7661,-162.9209 202.7734,-142.1417"/>
<polygon fill="#000000" stroke="#000000" points="206.2773,-142.2782 203.7981,-131.9776 199.3126,-141.5761 206.2773,-142.2782"/>
</g>
<!-- _68 -->
<g id="node17" class="node">
<title>_68</title>
<ellipse fill="#000000" stroke="#000000" cx="146" cy="-17.8" rx="1.8" ry="1.8"/>
</g>
<!-- cluster_d196e128&#45;&gt;_68 -->
<g id="edge15" class="edge">
<title>cluster_d196e128:_60&#45;&gt;_68</title>
<path fill="none" stroke="#000000" d="M146,-98.1C146,-73.9473 146,-45.7081 146,-29.9756"/>
<polygon fill="#000000" stroke="#000000" points="149.5001,-29.7866 146,-19.7866 142.5001,-29.7866 149.5001,-29.7866"/>
</g>
</g>
</svg>
