<?xml version="1.0" encoding="UTF-8" standalone="no"?>
<!DOCTYPE svg PUBLIC "-//W3C//DTD SVG 1.1//EN"
 "http://www.w3.org/Graphics/SVG/1.1/DTD/svg11.dtd">
<!-- Generated by graphviz version 2.40.1 (20161225.0304)
 -->
<!-- Title: pipeline Pages: 1 -->
<svg width="376pt" height="2417pt"
 viewBox="0.00 0.00 376.00 2417.29" xmlns="http://www.w3.org/2000/svg" xmlns:xlink="http://www.w3.org/1999/xlink">
<g id="graph0" class="graph" transform="scale(1 1) rotate(0) translate(4 2413.2939)">
<title>pipeline</title>
<polygon fill="#ffffff" stroke="transparent" points="-4,4 -4,-2413.2939 372,-2413.2939 372,4 -4,4"/>
<g id="cluster_d197e3" class="cluster">
<title>cluster_d197e3</title>
</g>
<g id="cluster_d197e2" class="cluster">
<title>cluster_d197e2</title>
</g>
<g id="cluster_onepiece_to_XML" class="cluster">
<title>cluster_onepiece_to_XML</title>
<path fill="none" stroke="#56b4e9" stroke-width="2" d="M28,-16C28,-16 340,-16 340,-16 346,-16 352,-22 352,-28 352,-28 352,-2295.6 352,-2295.6 352,-2301.6 346,-2307.6 340,-2307.6 340,-2307.6 28,-2307.6 28,-2307.6 22,-2307.6 16,-2301.6 16,-2295.6 16,-2295.6 16,-28 16,-28 16,-22 22,-16 28,-16"/>
<text text-anchor="middle" x="184" y="-2292.4" font-family="sans-serif" font-size="14.00" fill="#000000">p:declare&#45;step “onepiece&#45;to&#45;XML”</text>
</g>
<g id="cluster_document" class="cluster">
<title>cluster_document</title>
</g>
<g id="cluster_identity" class="cluster">
<title>cluster_identity</title>
</g>
<g id="cluster_d197e7" class="cluster">
<title>cluster_d197e7</title>
</g>
<g id="cluster_invisible_xml" class="cluster">
<title>cluster_invisible_xml</title>
</g>
<g id="cluster_identity_2" class="cluster">
<title>cluster_identity_2</title>
</g>
<g id="cluster_simple_XML" class="cluster">
<title>cluster_simple_XML</title>
</g>
<g id="cluster_identity_3" class="cluster">
<title>cluster_identity_3</title>
</g>
<g id="cluster_document_2" class="cluster">
<title>cluster_document_2</title>
</g>
<g id="cluster_xslt" class="cluster">
<title>cluster_xslt</title>
</g>
<g id="cluster_identity_4" class="cluster">
<title>cluster_identity_4</title>
</g>
<g id="cluster_store" class="cluster">
<title>cluster_store</title>
</g>
<g id="cluster_identity_5" class="cluster">
<title>cluster_identity_5</title>
</g>
<!-- cluster_d197e3 -->
<g id="node1" class="node">
<title>cluster_d197e3</title>
<polygon fill="none" stroke="#000000" points="32.3641,-2360.1613 84,-2342.7522 135.6359,-2360.1613 135.5877,-2388.3299 32.4123,-2388.3299 32.3641,-2360.1613"/>
<polygon fill="none" stroke="#000000" points="63,-2356.9469 63,-2377.9469 106,-2377.9469 106,-2356.9469 63,-2356.9469"/>
<text text-anchor="start" x="66" y="-2363.7469" font-family="Times,serif" font-size="14.00" fill="#000000">source</text>
</g>
<!-- cluster_d197e7 -->
<g id="node2" class="node">
<title>cluster_d197e7</title>
<polygon fill="none" stroke="#000000" points="63,-2243.6 63,-2264.6 106,-2264.6 106,-2243.6 63,-2243.6"/>
<text text-anchor="start" x="66" y="-2250.4" font-family="Times,serif" font-size="14.00" fill="#000000">source</text>
<polygon fill="none" stroke="#000000" points="63,-2222.6 63,-2243.6 106,-2243.6 106,-2222.6 63,-2222.6"/>
<text text-anchor="start" x="66" y="-2229.4" font-family="Times,serif" font-size="14.00" fill="#000000">source</text>
</g>
<!-- cluster_d197e3&#45;&gt;cluster_d197e7 -->
<g id="edge1" class="edge">
<title>cluster_d197e3:input_32&#45;&gt;cluster_d197e7:_2</title>
<path fill="none" stroke="#000000" d="M85,-2356.7783C85,-2340.1809 85,-2305.9712 85,-2274.6439"/>
<polygon fill="#000000" stroke="#000000" points="88.5001,-2274.6 85,-2264.6 81.5001,-2274.6 88.5001,-2274.6"/>
</g>
<!-- cluster_identity -->
<g id="node3" class="node">
<title>cluster_identity</title>
<polygon fill="none" stroke="#000000" points="55,-2042.1 55,-2063.1 115,-2063.1 115,-2042.1 55,-2042.1"/>
<text text-anchor="start" x="66.5" y="-2048.9" font-family="Times,serif" font-size="14.00" fill="#000000">source</text>
<polygon fill="#edc571" stroke="transparent" points="55,-2021.1 55,-2042.1 115,-2042.1 115,-2021.1 55,-2021.1"/>
<polygon fill="none" stroke="#000000" points="55,-2021.1 55,-2042.1 115,-2042.1 115,-2021.1 55,-2021.1"/>
<text text-anchor="start" x="58" y="-2027.9" font-family="Times,serif" font-size="14.00" fill="#000000">p:identity</text>
<polygon fill="none" stroke="#000000" points="55,-2000.1 55,-2021.1 115,-2021.1 115,-2000.1 55,-2000.1"/>
<text text-anchor="start" x="69" y="-2006.9" font-family="Times,serif" font-size="14.00" fill="#000000">result</text>
</g>
<!-- cluster_d197e7&#45;&gt;cluster_identity -->
<g id="edge16" class="edge">
<title>cluster_d197e7:_1&#45;&gt;cluster_identity:_3</title>
<path fill="none" stroke="#000000" d="M85,-2222.6C85,-2204.1556 85,-2199.5444 85,-2181.1 85,-2181.1 85,-2181.1 85,-2105.1 85,-2090.3708 85,-2084.3583 85,-2073.3065"/>
<polygon fill="#000000" stroke="#000000" points="88.5001,-2073.1 85,-2063.1 81.5001,-2073.1 88.5001,-2073.1"/>
</g>
<!-- cluster_invisible_xml -->
<g id="node5" class="node">
<title>cluster_invisible_xml</title>
<polygon fill="none" stroke="#000000" points="210,-1806.1 210,-1827.1 267,-1827.1 267,-1806.1 210,-1806.1"/>
<text text-anchor="start" x="213" y="-1812.9" font-family="Times,serif" font-size="14.00" fill="#000000">grammar</text>
<polygon fill="none" stroke="#000000" points="267,-1806.1 267,-1827.1 310,-1827.1 310,-1806.1 267,-1806.1"/>
<text text-anchor="start" x="270" y="-1812.9" font-family="Times,serif" font-size="14.00" fill="#000000">source</text>
<polygon fill="#edc571" stroke="transparent" points="210,-1785.1 210,-1806.1 310,-1806.1 310,-1785.1 210,-1785.1"/>
<polygon fill="none" stroke="#000000" points="210,-1785.1 210,-1806.1 310,-1806.1 310,-1785.1 210,-1785.1"/>
<text text-anchor="start" x="217" y="-1791.9" font-family="Times,serif" font-size="14.00" fill="#000000">p:invisible&#45;xml</text>
<polygon fill="none" stroke="#000000" points="210,-1764.1 210,-1785.1 310,-1785.1 310,-1764.1 210,-1764.1"/>
<text text-anchor="start" x="244" y="-1770.9" font-family="Times,serif" font-size="14.00" fill="#000000">result</text>
</g>
<!-- cluster_identity&#45;&gt;cluster_invisible_xml -->
<g id="edge3" class="edge">
<title>cluster_identity:_4&#45;&gt;cluster_invisible_xml:_8</title>
<path fill="none" stroke="#000000" d="M115,-2010.1C121.8105,-2010.1 149,-1965.9105 149,-1959.1 149,-1959.1 149,-1959.1 149,-1869.1 149,-1840.2985 259.0778,-1855.0901 284.0173,-1836.1652"/>
<polygon fill="#000000" stroke="#000000" points="287.2503,-1837.5494 289,-1827.1 281.1159,-1834.1776 287.2503,-1837.5494"/>
<text text-anchor="middle" x="152" y="-1910.4" font-family="Times,serif" font-size="14.00" fill="#000000">⋮</text>
</g>
<!-- cluster_document -->
<g id="node4" class="node">
<title>cluster_document</title>
<polygon fill="#edc571" stroke="transparent" points="155,-2042.1 155,-2063.1 327,-2063.1 327,-2042.1 155,-2042.1"/>
<polygon fill="none" stroke="#000000" points="155,-2042.1 155,-2063.1 327,-2063.1 327,-2042.1 155,-2042.1"/>
<text text-anchor="start" x="204.5" y="-2048.9" font-family="Times,serif" font-size="14.00" fill="#000000">cx:document</text>
<polygon fill="none" stroke="#000000" points="155,-2021.1 155,-2042.1 327,-2042.1 327,-2021.1 155,-2021.1"/>
<text text-anchor="start" x="158" y="-2027.9" font-family="Times,serif" font-size="14.00" fill="#000000">href=&quot;onepieceSimpler.ixml&quot;</text>
<polygon fill="none" stroke="#000000" points="155,-2000.1 155,-2021.1 327,-2021.1 327,-2000.1 155,-2000.1"/>
<text text-anchor="start" x="225" y="-2006.9" font-family="Times,serif" font-size="14.00" fill="#000000">result</text>
</g>
<!-- cluster_document&#45;&gt;cluster_invisible_xml -->
<g id="edge2" class="edge">
<title>cluster_document:_5&#45;&gt;cluster_invisible_xml:_7</title>
<path fill="none" stroke="#000000" d="M241,-2000.1C241,-1981.8561 239,-1977.3439 239,-1959.1 239,-1959.1 239,-1959.1 239,-1869.1 239,-1854.3667 238.3774,-1848.3599 238.1147,-1837.308"/>
<polygon fill="#000000" stroke="#000000" points="241.6122,-1837.06 238,-1827.1 234.6127,-1837.1387 241.6122,-1837.06"/>
</g>
<!-- cluster_identity_2 -->
<g id="node6" class="node">
<title>cluster_identity_2</title>
<polygon fill="none" stroke="#000000" points="230,-1584.1 230,-1605.1 290,-1605.1 290,-1584.1 230,-1584.1"/>
<text text-anchor="start" x="241.5" y="-1590.9" font-family="Times,serif" font-size="14.00" fill="#000000">source</text>
<polygon fill="#edc571" stroke="transparent" points="230,-1563.1 230,-1584.1 290,-1584.1 290,-1563.1 230,-1563.1"/>
<polygon fill="none" stroke="#000000" points="230,-1563.1 230,-1584.1 290,-1584.1 290,-1563.1 230,-1563.1"/>
<text text-anchor="start" x="233" y="-1569.9" font-family="Times,serif" font-size="14.00" fill="#000000">p:identity</text>
<polygon fill="none" stroke="#000000" points="230,-1542.1 230,-1563.1 290,-1563.1 290,-1542.1 230,-1542.1"/>
<text text-anchor="start" x="244" y="-1548.9" font-family="Times,serif" font-size="14.00" fill="#000000">result</text>
</g>
<!-- cluster_invisible_xml&#45;&gt;cluster_identity_2 -->
<g id="edge4" class="edge">
<title>cluster_invisible_xml:_9&#45;&gt;cluster_identity_2:_10</title>
<path fill="none" stroke="#000000" d="M260,-1764.1C260,-1745.8778 260,-1741.3222 260,-1723.1 260,-1723.1 260,-1723.1 260,-1647.1 260,-1632.3708 260,-1626.3583 260,-1615.3065"/>
<polygon fill="#000000" stroke="#000000" points="263.5001,-1615.1 260,-1605.1 256.5001,-1615.1 263.5001,-1615.1"/>
</g>
<!-- cluster_simple_XML -->
<g id="node7" class="node">
<title>cluster_simple_XML</title>
<polygon fill="none" stroke="#000000" points="191,-1348.1 191,-1369.1 328,-1369.1 328,-1348.1 191,-1348.1"/>
<text text-anchor="start" x="241" y="-1354.9" font-family="Times,serif" font-size="14.00" fill="#000000">source</text>
<polygon fill="#edc571" stroke="transparent" points="191,-1327.1 191,-1348.1 236,-1348.1 236,-1327.1 191,-1327.1"/>
<polygon fill="none" stroke="#000000" points="191,-1327.1 191,-1348.1 236,-1348.1 236,-1327.1 191,-1327.1"/>
<text text-anchor="start" x="194" y="-1333.9" font-family="Times,serif" font-size="14.00" fill="#000000">p:store</text>
<polygon fill="none" stroke="#000000" points="236,-1327.1 236,-1348.1 328,-1348.1 328,-1327.1 236,-1327.1"/>
<text text-anchor="start" x="239" y="-1333.9" font-family="Times,serif" font-size="14.00" fill="#000000">“simple&#45;XML”</text>
<polygon fill="none" stroke="#000000" points="191,-1306.1 191,-1327.1 236,-1327.1 236,-1306.1 191,-1306.1"/>
<text text-anchor="start" x="197.5" y="-1312.9" font-family="Times,serif" font-size="14.00" fill="#000000">result</text>
<polygon fill="none" stroke="#000000" points="236,-1306.1 236,-1327.1 328,-1327.1 328,-1306.1 236,-1306.1"/>
<text text-anchor="start" x="256" y="-1312.9" font-family="Times,serif" font-size="14.00" fill="#000000">result&#45;uri</text>
</g>
<!-- cluster_identity_2&#45;&gt;cluster_simple_XML -->
<g id="edge5" class="edge">
<title>cluster_identity_2:_11&#45;&gt;cluster_simple_XML:_12</title>
<path fill="none" stroke="#000000" d="M260,-1542.1C260,-1523.8778 260,-1519.3222 260,-1501.1 260,-1501.1 260,-1501.1 260,-1411.1 260,-1396.3708 260,-1390.3583 260,-1379.3065"/>
<polygon fill="#000000" stroke="#000000" points="263.5001,-1379.1 260,-1369.1 256.5001,-1379.1 263.5001,-1379.1"/>
<text text-anchor="middle" x="263" y="-1452.4" font-family="Times,serif" font-size="14.00" fill="#000000">⋮</text>
</g>
<!-- cluster_identity_3 -->
<g id="node8" class="node">
<title>cluster_identity_3</title>
<polygon fill="none" stroke="#000000" points="254,-1126.1 254,-1147.1 314,-1147.1 314,-1126.1 254,-1126.1"/>
<text text-anchor="start" x="265.5" y="-1132.9" font-family="Times,serif" font-size="14.00" fill="#000000">source</text>
<polygon fill="#edc571" stroke="transparent" points="254,-1105.1 254,-1126.1 314,-1126.1 314,-1105.1 254,-1105.1"/>
<polygon fill="none" stroke="#000000" points="254,-1105.1 254,-1126.1 314,-1126.1 314,-1105.1 254,-1105.1"/>
<text text-anchor="start" x="257" y="-1111.9" font-family="Times,serif" font-size="14.00" fill="#000000">p:identity</text>
<polygon fill="none" stroke="#000000" points="254,-1084.1 254,-1105.1 314,-1105.1 314,-1084.1 254,-1084.1"/>
<text text-anchor="start" x="268" y="-1090.9" font-family="Times,serif" font-size="14.00" fill="#000000">result</text>
</g>
<!-- cluster_simple_XML&#45;&gt;cluster_identity_3 -->
<g id="edge6" class="edge">
<title>cluster_simple_XML:_13&#45;&gt;cluster_identity_3:_15</title>
<path fill="none" stroke="#000000" d="M213,-1306.1C213,-1284.9854 237,-1286.2146 237,-1265.1 237,-1265.1 237,-1265.1 237,-1189.1 237,-1168.9643 231.9836,-1146.5172 244.0681,-1139.3959"/>
<polygon fill="#000000" stroke="#000000" points="245.0452,-1142.7624 254,-1137.1 243.4686,-1135.9422 245.0452,-1142.7624"/>
</g>
<!-- _17 -->
<g id="node14" class="node">
<title>_17</title>
<ellipse fill="#000000" stroke="#000000" cx="342" cy="-1116.1" rx="1.8" ry="1.8"/>
</g>
<!-- cluster_simple_XML&#45;&gt;_17 -->
<g id="edge12" class="edge">
<title>cluster_simple_XML:_14&#45;&gt;_17</title>
<path fill="none" stroke="#000000" d="M328,-1316.1C334,-1316.1 329.2017,-1308.4784 328,-1302.6 324.3709,-1284.8468 312,-1283.2203 312,-1265.1 312,-1265.1 312,-1265.1 312,-1189.1 312,-1172.7444 327.4606,-1174.5914 334,-1159.6 338.3731,-1149.5749 340.3564,-1137.2391 341.2555,-1128.2674"/>
<polygon fill="#000000" stroke="#000000" points="344.7541,-1128.4078 341.9491,-1118.191 337.7706,-1127.9271 344.7541,-1128.4078"/>
</g>
<!-- cluster_xslt -->
<g id="node10" class="node">
<title>cluster_xslt</title>
<polygon fill="none" stroke="#000000" points="155,-904.1 155,-925.1 217,-925.1 217,-904.1 155,-904.1"/>
<text text-anchor="start" x="158" y="-910.9" font-family="Times,serif" font-size="14.00" fill="#000000">stylesheet</text>
<polygon fill="none" stroke="#000000" points="217,-904.1 217,-925.1 280,-925.1 280,-904.1 217,-904.1"/>
<text text-anchor="start" x="230" y="-910.9" font-family="Times,serif" font-size="14.00" fill="#000000">source</text>
<polygon fill="#edc571" stroke="transparent" points="155,-883.1 155,-904.1 280,-904.1 280,-883.1 155,-883.1"/>
<polygon fill="none" stroke="#000000" points="155,-883.1 155,-904.1 280,-904.1 280,-883.1 155,-883.1"/>
<text text-anchor="start" x="201.5" y="-889.9" font-family="Times,serif" font-size="14.00" fill="#000000">p:xslt</text>
<polygon fill="none" stroke="#000000" points="155,-862.1 155,-883.1 217,-883.1 217,-862.1 155,-862.1"/>
<text text-anchor="start" x="170" y="-868.9" font-family="Times,serif" font-size="14.00" fill="#000000">result</text>
<polygon fill="none" stroke="#000000" points="217,-862.1 217,-883.1 280,-883.1 280,-862.1 217,-862.1"/>
<text text-anchor="start" x="220" y="-868.9" font-family="Times,serif" font-size="14.00" fill="#000000">secondary</text>
</g>
<!-- cluster_identity_3&#45;&gt;cluster_xslt -->
<g id="edge8" class="edge">
<title>cluster_identity_3:_16&#45;&gt;cluster_xslt:_19</title>
<path fill="none" stroke="#000000" d="M284,-1084.1C284,-1065.1133 272,-1062.0867 272,-1043.1 272,-1043.1 272,-1043.1 272,-967.1 272,-949.8081 256.8164,-946.9386 251.1226,-935.0552"/>
<polygon fill="#000000" stroke="#000000" points="254.5084,-934.1503 249,-925.1 247.6623,-935.61 254.5084,-934.1503"/>
</g>
<!-- cluster_document_2 -->
<g id="node9" class="node">
<title>cluster_document_2</title>
<polygon fill="#edc571" stroke="transparent" points="40,-1126.1 40,-1147.1 214,-1147.1 214,-1126.1 40,-1126.1"/>
<polygon fill="none" stroke="#000000" points="40,-1126.1 40,-1147.1 214,-1147.1 214,-1126.1 40,-1126.1"/>
<text text-anchor="start" x="90.5" y="-1132.9" font-family="Times,serif" font-size="14.00" fill="#000000">cx:document</text>
<polygon fill="none" stroke="#000000" points="40,-1105.1 40,-1126.1 214,-1126.1 214,-1105.1 40,-1105.1"/>
<text text-anchor="start" x="43" y="-1111.9" font-family="Times,serif" font-size="14.00" fill="#000000">href=&quot;id&#45;transform&#45;regex.xsl&quot;</text>
<polygon fill="none" stroke="#000000" points="40,-1084.1 40,-1105.1 214,-1105.1 214,-1084.1 40,-1084.1"/>
<text text-anchor="start" x="111" y="-1090.9" font-family="Times,serif" font-size="14.00" fill="#000000">result</text>
</g>
<!-- cluster_document_2&#45;&gt;cluster_xslt -->
<g id="edge7" class="edge">
<title>cluster_document_2:_6&#45;&gt;cluster_xslt:_18</title>
<path fill="none" stroke="#000000" d="M127,-1084.1C127,-1065.1133 139,-1062.0867 139,-1043.1 139,-1043.1 139,-1043.1 139,-967.1 139,-947.0756 133.39,-924.5555 145.1941,-917.4057"/>
<polygon fill="#000000" stroke="#000000" points="146.0666,-920.7961 155,-915.1 144.4643,-913.9819 146.0666,-920.7961"/>
</g>
<!-- cluster_identity_4 -->
<g id="node11" class="node">
<title>cluster_identity_4</title>
<polygon fill="none" stroke="#000000" points="156,-682.1 156,-703.1 216,-703.1 216,-682.1 156,-682.1"/>
<text text-anchor="start" x="167.5" y="-688.9" font-family="Times,serif" font-size="14.00" fill="#000000">source</text>
<polygon fill="#edc571" stroke="transparent" points="156,-661.1 156,-682.1 216,-682.1 216,-661.1 156,-661.1"/>
<polygon fill="none" stroke="#000000" points="156,-661.1 156,-682.1 216,-682.1 216,-661.1 156,-661.1"/>
<text text-anchor="start" x="159" y="-667.9" font-family="Times,serif" font-size="14.00" fill="#000000">p:identity</text>
<polygon fill="none" stroke="#000000" points="156,-640.1 156,-661.1 216,-661.1 216,-640.1 156,-640.1"/>
<text text-anchor="start" x="170" y="-646.9" font-family="Times,serif" font-size="14.00" fill="#000000">result</text>
</g>
<!-- cluster_xslt&#45;&gt;cluster_identity_4 -->
<g id="edge9" class="edge">
<title>cluster_xslt:_20&#45;&gt;cluster_identity_4:_22</title>
<path fill="none" stroke="#000000" d="M186,-862.1C186,-843.8778 186,-839.3222 186,-821.1 186,-821.1 186,-821.1 186,-745.1 186,-730.3708 186,-724.3583 186,-713.3065"/>
<polygon fill="#000000" stroke="#000000" points="189.5001,-713.1 186,-703.1 182.5001,-713.1 189.5001,-713.1"/>
</g>
<!-- _24 -->
<g id="node15" class="node">
<title>_24</title>
<ellipse fill="#000000" stroke="#000000" cx="249" cy="-672.1" rx="1.8" ry="1.8"/>
</g>
<!-- cluster_xslt&#45;&gt;_24 -->
<g id="edge13" class="edge">
<title>cluster_xslt:_21&#45;&gt;_24</title>
<path fill="none" stroke="#000000" d="M249,-862.1C249,-843.8778 249,-839.3222 249,-821.1 249,-821.1 249,-821.1 249,-745.1 249,-723.5865 249,-698.5068 249,-684.0493"/>
<polygon fill="#000000" stroke="#000000" points="252.5001,-683.906 249,-673.906 245.5001,-683.906 252.5001,-683.906"/>
</g>
<!-- cluster_store -->
<g id="node12" class="node">
<title>cluster_store</title>
<polygon fill="none" stroke="#000000" points="138,-446.1 138,-467.1 234,-467.1 234,-446.1 138,-446.1"/>
<text text-anchor="start" x="167.5" y="-452.9" font-family="Times,serif" font-size="14.00" fill="#000000">source</text>
<polygon fill="#edc571" stroke="transparent" points="138,-425.1 138,-446.1 234,-446.1 234,-425.1 138,-425.1"/>
<polygon fill="none" stroke="#000000" points="138,-425.1 138,-446.1 234,-446.1 234,-425.1 138,-425.1"/>
<text text-anchor="start" x="166.5" y="-431.9" font-family="Times,serif" font-size="14.00" fill="#000000">p:store</text>
<polygon fill="none" stroke="#000000" points="138,-404.1 138,-425.1 176,-425.1 176,-404.1 138,-404.1"/>
<text text-anchor="start" x="141" y="-410.9" font-family="Times,serif" font-size="14.00" fill="#000000">result</text>
<polygon fill="none" stroke="#000000" points="176,-404.1 176,-425.1 234,-425.1 234,-404.1 176,-404.1"/>
<text text-anchor="start" x="179" y="-410.9" font-family="Times,serif" font-size="14.00" fill="#000000">result&#45;uri</text>
</g>
<!-- cluster_identity_4&#45;&gt;cluster_store -->
<g id="edge10" class="edge">
<title>cluster_identity_4:_23&#45;&gt;cluster_store:_25</title>
<path fill="none" stroke="#000000" d="M186,-640.1C186,-621.8778 186,-617.3222 186,-599.1 186,-599.1 186,-599.1 186,-509.1 186,-494.3708 186,-488.3583 186,-477.3065"/>
<polygon fill="#000000" stroke="#000000" points="189.5001,-477.1 186,-467.1 182.5001,-477.1 189.5001,-477.1"/>
<text text-anchor="middle" x="189" y="-550.4" font-family="Times,serif" font-size="14.00" fill="#000000">⋮</text>
</g>
<!-- cluster_identity_5 -->
<g id="node13" class="node">
<title>cluster_identity_5</title>
<polygon fill="none" stroke="#000000" points="124,-224.1 124,-245.1 184,-245.1 184,-224.1 124,-224.1"/>
<text text-anchor="start" x="135.5" y="-230.9" font-family="Times,serif" font-size="14.00" fill="#000000">source</text>
<polygon fill="#edc571" stroke="transparent" points="124,-203.1 124,-224.1 184,-224.1 184,-203.1 124,-203.1"/>
<polygon fill="none" stroke="#000000" points="124,-203.1 124,-224.1 184,-224.1 184,-203.1 124,-203.1"/>
<text text-anchor="start" x="127" y="-209.9" font-family="Times,serif" font-size="14.00" fill="#000000">p:identity</text>
<polygon fill="none" stroke="#000000" points="124,-182.1 124,-203.1 184,-203.1 184,-182.1 124,-182.1"/>
<text text-anchor="start" x="138" y="-188.9" font-family="Times,serif" font-size="14.00" fill="#000000">result</text>
</g>
<!-- cluster_store&#45;&gt;cluster_identity_5 -->
<g id="edge11" class="edge">
<title>cluster_store:_26&#45;&gt;cluster_identity_5:_28</title>
<path fill="none" stroke="#000000" d="M157,-404.1C157,-385.8561 155,-381.3439 155,-363.1 155,-363.1 155,-363.1 155,-287.1 155,-272.3667 154.3774,-266.3599 154.1147,-255.308"/>
<polygon fill="#000000" stroke="#000000" points="157.6122,-255.06 154,-245.1 150.6127,-255.1387 157.6122,-255.06"/>
</g>
<!-- _30 -->
<g id="node16" class="node">
<title>_30</title>
<ellipse fill="#000000" stroke="#000000" cx="212" cy="-214.1" rx="1.8" ry="1.8"/>
</g>
<!-- cluster_store&#45;&gt;_30 -->
<g id="edge14" class="edge">
<title>cluster_store:_27&#45;&gt;_30</title>
<path fill="none" stroke="#000000" d="M205,-404.1C205,-385.8561 207,-381.3439 207,-363.1 207,-363.1 207,-363.1 207,-287.1 207,-265.5361 209.1984,-240.4728 210.6798,-226.0322"/>
<polygon fill="#000000" stroke="#000000" points="214.1796,-226.2236 211.7852,-215.9029 207.2209,-225.4641 214.1796,-226.2236"/>
</g>
<!-- _31 -->
<g id="node17" class="node">
<title>_31</title>
<ellipse fill="#000000" stroke="#000000" cx="154" cy="-25.8" rx="1.8" ry="1.8"/>
</g>
<!-- cluster_identity_5&#45;&gt;_31 -->
<g id="edge15" class="edge">
<title>cluster_identity_5:_29&#45;&gt;_31</title>
<path fill="none" stroke="#000000" d="M154,-182.1C154,-163.8778 154,-159.3222 154,-141.1 154,-141.1 154,-141.1 154,-65.1 154,-55.9466 154,-45.5941 154,-37.8129"/>
<polygon fill="#000000" stroke="#000000" points="157.5001,-37.6019 154,-27.6019 150.5001,-37.6019 157.5001,-37.6019"/>
</g>
</g>
</svg>
